<?xml version="1.0" encoding="UTF-8"?>
<svg width="32px" height="29px" viewBox="0 0 32 29" version="1.1" xmlns="http://www.w3.org/2000/svg" xmlns:xlink="http://www.w3.org/1999/xlink">
    <!-- Generator: Sketch 51.2 (57519) - http://www.bohemiancoding.com/sketch -->
    <title>Combined Shape</title>
    <desc>Created with Sketch.</desc>
    <defs></defs>
    <g id="Page-1" stroke="none" stroke-width="1" fill="none" fill-rule="evenodd">
        <g id="dailey-listing" transform="translate(-17.000000, -348.000000)" fill="#000000" fill-rule="nonzero">
            <path d="M46.2722958,369.573562 C47.8428065,369.320897 48.9981759,367.966368 49,366.375657 L49,363.132894 C49,362.834425 48.7580088,362.592434 48.4595395,362.592434 L33.3174573,362.592434 C33.018988,362.592434 32.7769968,362.834425 32.7769968,363.132894 L32.7769968,367.997039 L31.7052636,367.997039 L31.7052636,355.025987 C31.7053987,354.952957 31.6904685,354.88067 31.6614863,354.813586 L30.0838821,351.134671 L30.0838821,348.540461 C30.0838821,348.241991 29.8418909,348 29.5434215,348 L19.8151323,348 C19.516663,348 19.2746718,348.241991 19.2746718,348.540461 L19.2746718,351.134671 L17.6970676,354.815207 C17.668288,354.881751 17.6534254,354.953497 17.6532903,355.025987 L17.6532903,373.592427 C16.911238,374.175178 16.7821355,375.249141 17.364887,375.991193 C17.6892984,376.404308 18.1857114,376.645218 18.7109715,376.644407 L45.2167764,376.644407 C45.4226243,376.645556 45.6111775,376.529627 45.7031909,376.345533 L46.631702,374.482565 L49,374.482565 L49,373.401644 L44.1158583,373.401644 C45.3443251,372.488536 46.1279928,371.097391 46.2722958,369.573562 Z M46.2976974,363.673355 L47.919079,363.673355 L47.919079,366.375657 C47.9153633,367.358417 47.2493133,368.215047 46.2976974,368.460754 L46.2976974,363.673355 Z M30.3454649,354.485526 L28.7413781,354.485526 L29.5434215,352.614992 L30.3454649,354.485526 Z M30.6243426,355.566447 L30.6243426,367.997039 L28.4625005,367.997039 L28.4625005,355.566447 L30.6243426,355.566447 Z M20.3555928,349.080921 L29.002961,349.080921 L29.002961,350.702303 L20.3555928,350.702303 L20.3555928,349.080921 Z M20.1712958,351.783224 L28.7240834,351.783224 L27.5658765,354.485526 L19.0130889,354.485526 L20.1712958,351.783224 Z M18.7342113,355.566447 L27.3815795,355.566447 L27.3815795,367.997039 L26.2331009,367.997039 C25.7390524,367.996904 25.269122,368.210318 24.9441026,368.582358 C24.8057447,368.744023 24.6990037,368.930279 24.6295546,369.131466 L21.9996737,369.882706 C21.3303809,370.079231 20.8463985,370.661036 20.7749902,371.35492 L18.7342113,372.812542 L18.7342113,355.566447 Z M18.7109715,375.563486 C18.4390523,375.563824 18.1977367,375.38939 18.1126817,375.131118 C18.0239786,374.868454 18.1180187,374.578767 18.3439988,374.41825 L20.9322642,372.569335 L21.5310944,375.563487 L18.7109715,375.563486 Z M22.6330934,375.563486 L21.8510471,371.651633 C21.7884888,371.329721 21.9815683,371.013214 22.2963865,370.921471 L24.5814536,370.268595 L25.2981042,375.563486 L22.6330934,375.563486 Z M26.389294,375.563486 L25.6077881,369.791908 C25.5618489,369.446622 25.8044482,369.129439 26.1497349,369.0835 C26.1773659,369.079852 26.2051996,369.07796 26.2331009,369.07796 L32.7775373,369.07796 C32.7821312,370.782505 33.5905925,372.385038 34.9588359,373.401644 L30.6243426,373.401644 L30.6243426,374.482565 L32.9926405,374.482565 L33.533101,375.563486 L26.389294,375.563486 Z M45.4232323,374.482565 L44.8827718,375.563486 L34.7415708,375.563486 L34.2011102,374.482565 L45.4232323,374.482565 Z M40.8839045,373.401644 L38.1907897,373.401644 C35.7990493,373.398672 33.8608903,371.460513 33.8579178,369.068772 L33.8579178,363.673355 L45.2167764,363.673355 L45.2167764,369.068772 C45.2141417,371.460648 43.27578,373.398942 40.8839045,373.401644 Z M45.4870067,356.106908 C46.5317168,356.106908 47.3786185,356.953809 47.3786185,357.998519 C47.3786185,359.04323 46.5317168,359.890131 45.4870067,359.890131 L37.6503292,359.890131 C36.7548537,359.890131 36.0289477,360.616037 36.0289477,361.511513 L34.9480267,361.511513 C34.9497832,360.019842 36.1586582,358.810967 37.6503292,358.80921 L45.4870067,358.80921 C45.9347106,358.80921 46.2976974,358.446223 46.2976974,357.998519 C46.2976974,357.550816 45.9347106,357.187829 45.4870067,357.187829 L39.0014805,357.187829 C37.9567703,357.187829 37.1098687,356.340927 37.1098687,355.296217 C37.1098687,354.251507 37.9567703,353.404605 39.0014805,353.404605 L41.4335528,353.404605 C42.3290283,353.404605 43.0549344,352.678699 43.0549344,351.783224 L44.1358554,351.783224 C44.1340989,353.274895 42.9252238,354.48377 41.4335528,354.485526 L39.0014805,354.485526 C38.5537765,354.485526 38.1907897,354.848513 38.1907897,355.296217 C38.1907897,355.743921 38.5537765,356.106908 39.0014805,356.106908 L45.4870067,356.106908 Z M23.0578954,358.26875 C24.2518402,358.26875 25.2197374,359.236647 25.2197374,360.430592 C25.2197374,361.624537 24.2518402,362.592434 23.0578954,362.592434 C21.8639506,362.592434 20.8960533,361.624537 20.8960533,360.430592 C20.8960533,359.236647 21.8639506,358.26875 23.0578954,358.26875 Z M23.0578954,361.511513 C23.6549016,361.511513 24.1388164,361.027598 24.1388164,360.430592 C24.1388164,359.833586 23.6549016,359.349671 23.0578954,359.349671 C22.4608892,359.349671 21.9769744,359.833586 21.9769744,360.430592 C21.9769744,361.027598 22.4608892,361.511513 23.0578954,361.511513 Z M20.8960533,363.673355 L25.2197374,363.673355 L25.2197374,364.754276 L20.8960533,364.754276 L20.8960533,363.673355 Z M20.8960533,365.835197 L25.2197374,365.835197 L25.2197374,366.916118 L20.8960533,366.916118 L20.8960533,365.835197 Z" id="Combined-Shape"></path>
        </g>
    </g>
</svg>