<?xml version="1.0" encoding="UTF-8"?>
<svg width="24px" height="24px" viewBox="0 0 24 24" version="1.1" xmlns="http://www.w3.org/2000/svg" xmlns:xlink="http://www.w3.org/1999/xlink">
    <!-- Generator: Sketch 51.2 (57519) - http://www.bohemiancoding.com/sketch -->
    <title>calendar</title>
    <desc>Created with Sketch.</desc>
    <defs></defs>
    <g id="Page-1" stroke="none" stroke-width="1" fill="none" fill-rule="evenodd">
        <g id="add_entry" transform="translate(-20.000000, -438.000000)" fill="#9B9B9B" fill-rule="nonzero">
            <path d="M41.65625,440.0625 L39.4218594,440.0625 L39.4218594,439.40625 C39.4218594,438.630844 38.7910156,438 38.0156094,438 C37.2402031,438 36.6093594,438.630844 36.6093594,439.40625 L36.6093594,440.0625 L28.7343594,440.0625 L28.7343594,439.40625 C28.7343594,438.630844 28.1035156,438 27.3281094,438 C26.5527031,438 25.9218594,438.630844 25.9218594,439.40625 L25.9218594,440.079844 C25.8820156,440.068828 25.84025,440.0625 25.7968906,440.0625 L23.9292031,440.0625 C22.6368594,440.0625 21.5854531,441.113906 21.5854531,442.40625 L21.5854531,450.390609 C21.5854531,450.6495 21.7953594,450.859359 22.0542031,450.859359 C22.3130469,450.859359 22.5229531,450.6495 22.5229531,450.390609 L22.5229531,444.890625 L39.4218594,444.890625 C39.6807031,444.890625 39.8906094,444.680766 39.8906094,444.421875 C39.8906094,444.162984 39.6807031,443.953125 39.4218594,443.953125 L22.5229531,443.953125 L22.5229531,442.40625 C22.5229531,441.630844 23.1537969,441 23.9292031,441 L25.7968906,441 C25.84025,441 25.8820156,440.993625 25.9218594,440.982656 L25.9218594,441.585938 C25.9218594,442.361344 26.5527031,442.992188 27.3281094,442.992188 C28.1035156,442.992188 28.7343594,442.361344 28.7343594,441.585938 L28.7343594,441 L36.6093594,441 L36.6093594,441.585938 C36.6093594,442.361344 37.2402031,442.992188 38.0156094,442.992188 C38.7910156,442.992188 39.4218594,442.361344 39.4218594,441.585938 L39.4218594,441 L41.65625,441 C42.4316563,441 43.0625,441.630844 43.0625,442.40625 L43.0625,460.218469 C43.0625,460.683844 42.6838906,461.0625 42.2184687,461.0625 C41.7530469,461.0625 41.3744375,460.683844 41.3744375,460.218469 L41.3744375,459.005859 C41.3744375,458.746969 41.1645313,458.537109 40.9056875,458.537109 L35.4531406,458.537109 C35.1942969,458.537109 34.9843906,458.746969 34.9843906,459.005859 C34.9843906,459.26475 35.1942969,459.474609 35.4531406,459.474609 L40.4369375,459.474609 L40.4369375,460.218469 C40.4369375,460.523672 40.5141875,460.811109 40.6499844,461.0625 L21.78125,461.0625 C21.3160156,461.0625 20.9375,460.683984 20.9375,460.21875 L20.9375,459.474609 L31.4292969,459.474609 C31.6881406,459.474609 31.8980469,459.26475 31.8980469,459.005859 C31.8980469,458.746969 31.6881406,458.537109 31.4292969,458.537109 L26.7457344,458.537109 C27.5648281,457.831687 28.0849531,456.78825 28.0849531,455.625 C28.0849531,453.505547 26.3606562,451.78125 24.2412031,451.78125 C22.12175,451.78125 20.3974531,453.505547 20.3974531,455.625 C20.3974531,456.78825 20.9175781,457.831687 21.7366719,458.537109 L20.46875,458.537109 C20.2099062,458.537109 20,458.746969 20,459.005859 L20,460.21875 C20,461.200922 20.7990781,462 21.78125,462 L42.2184687,462 C43.2007812,462 44,461.200828 44,460.218469 L44,442.40625 C44,441.113906 42.9485938,440.0625 41.65625,440.0625 Z M27.7968594,441.585938 C27.7968594,441.844406 27.5865781,442.054688 27.3281094,442.054688 C27.0696406,442.054688 26.8593594,441.844406 26.8593594,441.585938 L26.8593594,439.40625 C26.8593594,439.147781 27.0696406,438.9375 27.3281094,438.9375 C27.5865781,438.9375 27.7968594,439.147781 27.7968594,439.40625 L27.7968594,441.585938 Z M38.4843594,441.585938 C38.4843594,441.844406 38.2740781,442.054688 38.0156094,442.054688 C37.7571406,442.054688 37.5468594,441.844406 37.5468594,441.585938 L37.5468594,439.40625 C37.5468594,439.147781 37.7571406,438.9375 38.0156094,438.9375 C38.2740781,438.9375 38.4843594,439.147781 38.4843594,439.40625 L38.4843594,441.585938 Z M21.3349531,455.625 C21.3349531,454.022484 22.6386875,452.71875 24.2412031,452.71875 C25.8437188,452.71875 27.1474531,454.022484 27.1474531,455.625 C27.1474531,457.227516 25.8437188,458.53125 24.2412031,458.53125 C22.6386875,458.53125 21.3349531,457.227516 21.3349531,455.625 Z M41.9519844,444.090469 C42.0392187,444.177656 42.089375,444.298594 42.089375,444.421875 C42.089375,444.545156 42.0391719,444.666094 41.9519844,444.753281 C41.8648437,444.840469 41.7439062,444.890625 41.620625,444.890625 C41.4972969,444.890625 41.3764531,444.840469 41.2892187,444.753281 C41.2019844,444.666094 41.151875,444.545156 41.151875,444.421875 C41.151875,444.298594 41.2020312,444.177656 41.2892187,444.090469 C41.3764062,444.003281 41.4972969,443.953125 41.620625,443.953125 C41.7439062,443.953125 41.8648437,444.003281 41.9519844,444.090469 Z M33.9991719,458.674219 C34.0864062,458.761875 34.1365625,458.882344 34.1365625,459.005625 C34.1365625,459.128906 34.0863594,459.249844 33.9991719,459.3375 C33.9120312,459.424688 33.7910938,459.474375 33.6678125,459.474375 C33.5445312,459.474375 33.4235938,459.424688 33.3364062,459.3375 C33.2491719,459.249844 33.1990625,459.129375 33.1990625,459.005625 C33.1990625,458.882344 33.2492187,458.761875 33.3364062,458.674219 C33.4235938,458.587031 33.5445312,458.537344 33.6678125,458.537344 C33.7910938,458.537344 33.9120312,458.587031 33.9991719,458.674219 Z M30.6052344,452.25 C31.5874062,452.25 32.3864844,453.049078 32.3864844,454.03125 C32.3864844,455.013422 31.5874062,455.8125 30.6052344,455.8125 C29.6230625,455.8125 28.8239844,455.013422 28.8239844,454.03125 C28.8239844,453.049078 29.6230625,452.25 30.6052344,452.25 Z M30.6052344,454.875 C31.0704687,454.875 31.4489844,454.496484 31.4489844,454.03125 C31.4489844,453.566016 31.0704687,453.1875 30.6052344,453.1875 C30.14,453.1875 29.7614844,453.566016 29.7614844,454.03125 C29.7614844,454.496484 30.14,454.875 30.6052344,454.875 Z M34.9802187,452.25 C35.9623906,452.25 36.7614687,453.049078 36.7614687,454.03125 C36.7614687,455.013422 35.9623906,455.8125 34.9802187,455.8125 C33.9980469,455.8125 33.1989687,455.013422 33.1989687,454.03125 C33.1989687,453.049078 33.9980469,452.25 34.9802187,452.25 Z M34.9802187,454.875 C35.4454531,454.875 35.8239687,454.496484 35.8239687,454.03125 C35.8239687,453.566016 35.4454531,453.1875 34.9802187,453.1875 C34.5149844,453.1875 34.1364687,453.566016 34.1364687,454.03125 C34.1364687,454.496484 34.5149844,454.875 34.9802187,454.875 Z M39.35525,452.25 C40.3374219,452.25 41.1365,453.049078 41.1365,454.03125 C41.1365,455.013422 40.3374219,455.8125 39.35525,455.8125 C38.3730781,455.8125 37.574,455.013422 37.574,454.03125 C37.574,453.049078 38.3730781,452.25 39.35525,452.25 Z M39.35525,454.875 C39.8204844,454.875 40.199,454.496484 40.199,454.03125 C40.199,453.566016 39.8204844,453.1875 39.35525,453.1875 C38.8900156,453.1875 38.5115,453.566016 38.5115,454.03125 C38.5115,454.496484 38.8900156,454.875 39.35525,454.875 Z M26.23025,447.375 C27.2124219,447.375 28.0115,448.174078 28.0115,449.15625 C28.0115,450.138422 27.2124219,450.9375 26.23025,450.9375 C25.2480781,450.9375 24.449,450.138422 24.449,449.15625 C24.449,448.174078 25.2480781,447.375 26.23025,447.375 Z M34.9802187,447.375 C35.9623906,447.375 36.7614687,448.174078 36.7614687,449.15625 C36.7614687,450.138422 35.9623906,450.9375 34.9802187,450.9375 C33.9980469,450.9375 33.1989687,450.138422 33.1989687,449.15625 C33.1989687,448.174078 33.9980469,447.375 34.9802187,447.375 Z M34.9802187,450 C35.4454531,450 35.8239687,449.621484 35.8239687,449.15625 C35.8239687,448.691016 35.4454531,448.3125 34.9802187,448.3125 C34.5149844,448.3125 34.1364687,448.691016 34.1364687,449.15625 C34.1364687,449.621484 34.5149844,450 34.9802187,450 Z M39.35525,447.375 C40.3374219,447.375 41.1365,448.174078 41.1365,449.15625 C41.1365,450.138422 40.3374219,450.9375 39.35525,450.9375 C38.3730781,450.9375 37.574,450.138422 37.574,449.15625 C37.574,448.174078 38.3730781,447.375 39.35525,447.375 Z M39.35525,450 C39.8204844,450 40.199,449.621484 40.199,449.15625 C40.199,448.691016 39.8204844,448.3125 39.35525,448.3125 C38.8900156,448.3125 38.5115,448.691016 38.5115,449.15625 C38.5115,449.621484 38.8900156,450 39.35525,450 Z M30.6052344,447.375 C31.5874062,447.375 32.3864844,448.174078 32.3864844,449.15625 C32.3864844,450.138422 31.5874062,450.9375 30.6052344,450.9375 C29.6230625,450.9375 28.8239844,450.138422 28.8239844,449.15625 C28.8239844,448.174078 29.6230625,447.375 30.6052344,447.375 Z M26.23025,450 C26.6954844,450 27.074,449.621484 27.074,449.15625 C27.074,448.691016 26.6954844,448.3125 26.23025,448.3125 C25.7650156,448.3125 25.3865,448.691016 25.3865,449.15625 C25.3865,449.621484 25.7650156,450 26.23025,450 Z M30.6052344,450 C31.0704687,450 31.4489844,449.621484 31.4489844,449.15625 C31.4489844,448.691016 31.0704687,448.3125 30.6052344,448.3125 C30.14,448.3125 29.7614844,448.691016 29.7614844,449.15625 C29.7614844,449.621484 30.14,450 30.6052344,450 Z M25.911125,454.482609 C25.7280313,454.299562 25.4313125,454.299562 25.2481719,454.482609 L23.7216406,456.009187 L23.1999688,455.487516 C23.016875,455.304469 22.7201563,455.304469 22.5370156,455.487516 C22.3539687,455.670563 22.3539687,455.967375 22.5370156,456.150469 L23.3901875,457.003547 C23.478125,457.091437 23.5973281,457.140844 23.7216406,457.140844 C23.8459531,457.140844 23.9651562,457.091437 24.0530938,457.003547 L25.911125,455.145516 C26.0941719,454.962469 26.0941719,454.665656 25.911125,454.482609 Z" id="calendar"></path>
        </g>
    </g>
</svg>