<?xml version="1.0" encoding="UTF-8"?>
<svg width="56px" height="40px" viewBox="0 0 56 40" version="1.1" xmlns="http://www.w3.org/2000/svg" xmlns:xlink="http://www.w3.org/1999/xlink">
    <!-- Generator: Sketch 51.2 (57519) - http://www.bohemiancoding.com/sketch -->
    <title>carbs</title>
    <desc>Created with Sketch.</desc>
    <defs></defs>
    <g id="Page-1" stroke="none" stroke-width="1" fill="none" fill-rule="evenodd">
        <g id="dailey-listing" transform="translate(-49.000000, -218.000000)" fill="#0096A7" fill-rule="nonzero">
            <g id="carbs" transform="translate(49.000000, 218.000000)">
                <path d="M54.7060355,38.208284 L51.1150296,38.208284 C53.8847337,36.4478107 55.7417751,33.3566864 55.7417751,29.8179882 C55.7417751,29.3285207 55.3453254,28.9311243 54.8570414,28.9311243 L36.9547929,28.9311243 C36.88,28.9311243 36.8352663,28.9928994 36.7640237,29.0087574 L36.7640237,10.6210651 C36.7640237,8.94556213 35.9351479,7.51076923 34.7173964,6.53585799 C35.9171598,6.03218935 36.7640237,4.84852071 36.7640237,3.46745562 C36.7640237,1.63384615 35.2719527,0.13964497 33.4357396,0.13964497 L17.2804734,0.13964497 C15.7718343,0.13964497 14.547929,1.16591716 14.1386982,2.53846154 C14.0589349,2.11692308 13.9029586,1.72473373 13.6,1.43337278 C12.4951479,0.368284024 10.0773964,0.738461538 8.23810651,2.21159763 C8.15076923,2.28473373 8.08023669,2.36615385 7.99668639,2.43881657 L7.99668639,1.58035503 C7.99668639,1.09159763 7.5983432,0.693964497 7.11029586,0.693964497 C6.62153846,0.693964497 6.22201183,1.09136095 6.22201183,1.58035503 L6.22201183,2.43502959 C6.14059172,2.36236686 6.07360947,2.28284024 5.9843787,2.21159763 C4.14248521,0.742011834 1.72142012,0.366390533 0.621538462,1.43337278 C0.194319527,1.8435503 -0.0272189349,2.42508876 0.0026035503,3.06816568 C0.0523076923,4.15502959 0.805443787,5.38532544 2.01349112,6.34982249 C3.12284024,7.23621302 4.45633136,7.76497041 5.58414201,7.76497041 C5.81656805,7.76497041 6.01514793,7.7060355 6.22201183,7.66153846 L6.22201183,9.65301775 C6.14059172,9.57869822 6.07360947,9.49893491 5.9843787,9.42816568 C4.14627219,7.95668639 1.72142012,7.58508876 0.621538462,8.65136095 C0.194319527,9.06248521 -0.0272189349,9.64402367 0.0026035503,10.2856805 C0.0523076923,11.3742012 0.805443787,12.6018935 2.01349112,13.5642604 C3.12094675,14.4544379 4.45491124,14.9860355 5.58224852,14.9860355 C5.81467456,14.9860355 6.01514793,14.9263905 6.22201183,14.8816568 L6.22201183,16.8707692 C6.14059172,16.7976331 6.07360947,16.7181065 5.9843787,16.6473373 C4.14627219,15.1794083 1.72142012,14.8021302 0.621538462,15.8705325 C0.194319527,16.2807101 -0.0272189349,16.8650888 0.0026035503,17.5057988 C0.0523076923,18.5940828 0.805443787,19.823432 2.01349112,20.783432 C3.12094675,21.6740828 4.45633136,22.2042604 5.58414201,22.2042604 C5.81656805,22.2042604 6.01514793,22.1424852 6.22201183,22.1008284 L6.22201183,24.0915976 C6.14059172,24.0184615 6.07360947,23.9389349 5.9843787,23.8660355 C4.14627219,22.4004734 1.72142012,22.0295858 0.621538462,23.0901775 C0.194319527,23.4998817 -0.0253254438,24.0804734 0.0026035503,24.7223669 C0.0523076923,25.8130178 0.803550296,27.0376331 2.01349112,28.0030769 C3.12094675,28.8930178 4.45491124,29.4260355 5.58224852,29.4260355 C5.81467456,29.4260355 6.01514793,29.3642604 6.22201183,29.3207101 L6.22201183,38.204497 L3.39597633,38.204497 C2.90698225,38.204497 2.5095858,38.6018935 2.5095858,39.0901775 C2.5095858,39.579645 2.90698225,39.9810651 3.39597633,39.9810651 L54.707929,39.9810651 C55.1964497,39.9810651 55.5957396,39.5798817 55.5957396,39.0901775 C55.5938462,38.603787 55.1966864,38.208284 54.7060355,38.208284 Z M6.14556213,5.85207101 C6.04686391,5.94461538 5.84307692,5.99905325 5.58390533,5.99905325 C4.85727811,5.99905325 3.91550296,5.60402367 3.12071006,4.96899408 C2.22106509,4.25230769 1.79384615,3.45846154 1.77183432,2.99029586 C1.76426036,2.79502959 1.82556213,2.73704142 1.85159763,2.71147929 C1.94579882,2.6208284 2.14650888,2.56639053 2.40497041,2.56639053 C3.13159763,2.56639053 4.07905325,2.96189349 4.87621302,3.6016568 C5.77538462,4.31810651 6.19905325,5.11076923 6.21988166,5.57893491 C6.22911243,5.76994083 6.16733728,5.82532544 6.14556213,5.85207101 Z M6.14556213,13.0662722 C6.04686391,13.1597633 5.84307692,13.2132544 5.58224852,13.2132544 C4.8556213,13.2132544 3.91242604,12.8215385 3.12094675,12.1836686 C2.22130178,11.4650888 1.79408284,10.6736095 1.77207101,10.2094675 C1.76449704,10.0134911 1.82579882,9.95621302 1.85183432,9.92994083 C1.9443787,9.83905325 2.1547929,9.78485207 2.40710059,9.78485207 C3.13372781,9.78485207 4.07928994,10.1813018 4.8764497,10.8182249 C5.7756213,11.5377515 6.19928994,12.3287574 6.22011834,12.7950296 C6.22911243,12.9846154 6.16733728,13.0463905 6.14556213,13.0662722 Z M6.14556213,20.288284 C6.04686391,20.3820118 5.84307692,20.4371598 5.58390533,20.4371598 C4.85727811,20.4371598 3.91550296,20.0416568 3.11928994,19.4042604 C2.22106509,18.6868639 1.79573964,17.8956213 1.77372781,17.4274556 C1.76615385,17.2345562 1.82674556,17.1751479 1.85325444,17.1491124 C1.94579882,17.0575148 2.15621302,17.0040237 2.4087574,17.0040237 C3.13514793,17.0040237 4.08047337,17.3995266 4.87810651,18.035503 C5.77727811,18.756213 6.20071006,19.5474556 6.22153846,20.0142012 C6.22911243,20.2085207 6.16733728,20.2624852 6.14556213,20.288284 Z M6.14556213,27.5062722 C6.04686391,27.6 5.84307692,27.6513609 5.58224852,27.6513609 C4.8556213,27.6513609 3.91242604,27.259645 3.12094675,26.624142 C2.21940828,25.9022485 1.79408284,25.1112426 1.77207101,24.6426036 C1.76449704,24.4501775 1.82579882,24.3921893 1.85183432,24.3685207 C1.9443787,24.2783432 2.1547929,24.2255621 2.40710059,24.2255621 C3.13372781,24.2255621 4.07928994,24.6210651 4.8764497,25.2563314 C5.7756213,25.9782249 6.19928994,26.7673373 6.22011834,27.2321893 C6.22911243,27.4227219 6.16733728,27.4804734 6.14556213,27.5062722 Z M53.9247337,30.7055621 C53.4856805,34.7857988 50.0575148,37.975858 45.904142,37.975858 C41.7564497,37.975858 38.3247337,34.7857988 37.8892308,30.7055621 L53.9247337,30.7055621 Z M40.6908876,38.208284 L35.1801183,38.208284 C36.1543195,37.2428402 36.7661538,35.9110059 36.7661538,34.4343195 L36.7661538,33.4402367 C37.5391716,35.4215385 38.9230769,37.0833136 40.6908876,38.208284 Z M8.23810651,23.8698225 C8.15076923,23.9429586 8.08023669,24.0227219 7.99668639,24.0984615 L7.99668639,22.1065089 C8.20449704,22.1465089 8.4052071,22.2118343 8.63928994,22.2118343 C9.76710059,22.2118343 11.1031953,21.6816568 12.2085207,20.7910059 C13.0395266,20.1287574 13.631716,19.3446154 13.9510059,18.5642604 L13.9510059,23.6267456 C13.8513609,23.4359763 13.7559763,23.2456805 13.6,23.0968047 C12.4986982,22.0333728 10.0790533,22.3966864 8.23810651,23.8698225 Z M12.4504142,24.6426036 C12.4276923,25.1112426 12.0042604,25.904142 11.1031953,26.624142 C10.3112426,27.259645 9.36781065,27.6513609 8.64094675,27.6513609 C8.37869822,27.6513609 8.17467456,27.6 8.07715976,27.5062722 C8.05443787,27.484497 7.99266272,27.4227219 8.00071006,27.2321893 C8.02248521,26.7673373 8.44591716,25.9763314 9.34532544,25.2563314 C10.1410651,24.6208284 11.0861538,24.2255621 11.8113609,24.2255621 C12.071716,24.2255621 12.2736095,24.2785799 12.3746746,24.3725444 C12.396213,24.392426 12.4594083,24.4501775 12.4504142,24.6426036 Z M8.64071006,14.9898225 C9.76710059,14.9898225 11.1029586,14.4582249 12.2099408,13.5699408 C13.0392899,12.9084024 13.631716,12.1209467 13.9507692,11.3422485 L13.9507692,16.4059172 C13.8511243,16.2125444 13.7557396,16.0231953 13.5997633,15.872426 C12.4986982,14.8111243 10.0790533,15.1775148 8.23786982,16.6492308 C8.15053254,16.7218935 8.08,16.8033136 7.9964497,16.8778698 L7.9964497,14.883787 C8.20615385,14.9306509 8.40497041,14.9898225 8.64071006,14.9898225 Z M8.00047337,12.7931361 C8.02224852,12.3287574 8.44568047,11.535858 9.34508876,10.8163314 C10.1408284,10.1813018 11.0859172,9.78295858 11.8111243,9.78295858 C12.0714793,9.78295858 12.2733728,9.83739645 12.3706509,9.92994083 C12.3943195,9.95431953 12.4579882,10.0115976 12.4485207,10.2073373 C12.4262722,10.6721893 12.0002367,11.4650888 11.1015385,12.1836686 C10.3095858,12.8177515 9.36591716,13.2113609 8.63928994,13.2113609 C8.37704142,13.2113609 8.17278107,13.1576331 8.07502959,13.064142 C8.0539645,13.048284 7.99242604,12.9846154 8.00047337,12.7931361 Z M34.9914793,28.8381065 L26.2688757,28.8381065 L26.2688757,25.4956213 C26.4766864,25.5391716 26.6771598,25.6026036 26.9110059,25.6026036 C28.0369231,25.6026036 29.3751479,25.0714793 30.4821302,24.1817751 C31.6887574,23.2201183 32.4416568,21.9895858 32.4930178,20.9046154 C32.5214201,20.2605917 32.2986982,19.6781065 31.8736095,19.2684024 C30.7706509,18.2023669 28.3510059,18.5798817 26.5121893,20.0480473 C26.4231953,20.1211834 26.3543195,20.2009467 26.2707692,20.2769231 L26.2707692,19.4175148 C26.2707692,18.9289941 25.872426,18.5306509 25.3824852,18.5306509 C24.8937278,18.5306509 24.4960947,18.9289941 24.4960947,19.4175148 L24.4960947,20.2738462 C24.4144379,20.2007101 24.3453254,20.1209467 24.2584615,20.0480473 C22.4163314,18.5817751 19.9959763,18.2042604 18.8951479,19.272426 C18.4684024,19.6818935 18.2449704,20.2627219 18.2766864,20.9046154 C18.3263905,21.9936095 19.0797633,23.2236686 20.2871006,24.1874556 C21.3969231,25.0752663 22.7304142,25.6042604 23.8582249,25.6042604 C24.0904142,25.6042604 24.2873373,25.5465089 24.4960947,25.4991716 L24.4960947,28.8397633 L15.7254438,28.8397633 L15.7254438,16.0300592 L34.9933728,16.0300592 L34.9914793,28.8381065 Z M26.2743195,23.4059172 C26.2942012,22.9410651 26.72,22.1500592 27.6189349,21.4312426 C28.4146746,20.7947929 29.3623669,20.3992899 30.0887574,20.3992899 C30.3448521,20.3992899 30.5498225,20.4513609 30.6456805,20.5462722 C30.6695858,20.5689941 30.7308876,20.627929 30.7235503,20.8213018 C30.7015385,21.2861538 30.2757396,22.0807101 29.3756213,22.8007101 C28.5798817,23.436213 27.6366864,23.8300592 26.9095858,23.8300592 C26.6492308,23.8300592 26.4452071,23.779645 26.3472189,23.6849704 C26.3259172,23.6610651 26.2643787,23.5973964 26.2743195,23.4059172 Z M24.4944379,23.4059172 C24.5015385,23.6014201 24.4418935,23.6591716 24.4182249,23.6809467 C24.3214201,23.775858 24.1152663,23.827929 23.8586982,23.827929 C23.1325444,23.827929 22.1881657,23.4343195 21.3952663,22.7997633 C20.4951479,22.0807101 20.0698225,21.2897041 20.0480473,20.8213018 C20.0390533,20.6260355 20.1017751,20.5680473 20.127574,20.5422485 C20.2220118,20.4511243 20.4255621,20.3973964 20.6809467,20.3973964 C21.4099408,20.3973964 22.3550296,20.7928994 23.1526627,21.4312426 C24.0499408,22.1500592 24.4736095,22.9372781 24.4944379,23.4059172 Z M12.4504142,17.4274556 C12.4276923,17.8937278 12.0021302,18.6866272 11.1031953,19.4059172 C10.3098225,20.0416568 9.36591716,20.4369231 8.63928994,20.4369231 C8.37846154,20.4369231 8.17467456,20.3820118 8.0783432,20.2880473 C8.05609467,20.2660355 7.99408284,20.208284 8.00260355,20.015858 C8.02390533,19.5510059 8.44781065,18.756213 9.34698225,18.0373964 C10.1427219,17.4014201 11.0880473,17.0054438 11.8125444,17.0054438 C12.0728994,17.0054438 12.275503,17.0591716 12.3725444,17.152426 C12.396213,17.1751479 12.4594083,17.2343195 12.4504142,17.4274556 Z M15.7235503,30.6087574 L34.9914793,30.6087574 L34.9914793,34.4321893 C34.9914793,36.3860355 33.4035503,37.975858 31.4478107,37.975858 L19.2676923,37.975858 C17.3143195,37.975858 15.7235503,36.3860355 15.7235503,34.4321893 L15.7235503,30.6087574 Z M34.9914793,14.2537278 L15.7235503,14.2537278 L15.7235503,10.6210651 C15.7235503,8.66887574 17.3121893,7.0783432 19.2676923,7.0783432 L31.4480473,7.0783432 C33.403787,7.0783432 34.991716,8.66698225 34.991716,10.6210651 L34.991716,14.2537278 L34.9914793,14.2537278 Z M17.2804734,1.91431953 L33.4378698,1.91431953 C34.2944379,1.91431953 34.9914793,2.61088757 34.9914793,3.46745562 C34.9914793,4.32497041 34.2944379,5.02153846 33.4378698,5.02153846 L17.2804734,5.02153846 C16.4224852,5.02153846 15.7235503,4.32497041 15.7235503,3.46745562 C15.7235503,2.61088757 16.4227219,1.91431953 17.2804734,1.91431953 Z M9.34485207,3.59976331 C10.1405917,2.96189349 11.0878107,2.56497041 11.8123077,2.56497041 C12.0712426,2.56497041 12.2731361,2.61846154 12.3704142,2.71337278 C12.3940828,2.73704142 12.4577515,2.79502959 12.448284,2.99029586 C12.4260355,3.45656805 12,4.25230769 11.1013018,4.96899408 C10.3074556,5.60402367 9.36378698,5.99905325 8.63715976,5.99905325 C8.37680473,5.99905325 8.17254438,5.94461538 8.07668639,5.85207101 C8.0539645,5.82934911 7.99218935,5.76994083 8.00023669,5.57704142 C8.02224852,5.11076923 8.44568047,4.3147929 9.34485207,3.59976331 Z M8.63739645,7.76686391 C9.7652071,7.76686391 11.099645,7.23810651 12.2085207,6.35171598 C13.1062722,5.63218935 13.7507692,4.76994083 14.0428402,3.92639053 C14.2115976,5.09775148 14.9382249,6.09278107 15.9950296,6.5356213 C15.0108876,7.32473373 14.3621302,8.42887574 14.1315976,9.72023669 C14.0480473,9.31289941 13.8939645,8.93633136 13.5981065,8.65325444 C12.4968047,7.59408284 10.0773964,7.9583432 8.23621302,9.43005917 C8.14840237,9.5008284 8.0783432,9.58414201 7.99408284,9.65680473 L7.99408284,7.66366864 C8.20449704,7.71005917 8.40497041,7.76686391 8.63739645,7.76686391 Z M7.99668639,29.3228402 C8.20639053,29.364497 8.4052071,29.4262722 8.64071006,29.4262722 C9.76710059,29.4262722 11.1029586,28.8932544 12.2099408,28.0073373 C13.0411834,27.3431953 13.631716,26.5590533 13.9507692,25.7791716 L13.9507692,34.4326627 C13.9507692,35.9074556 14.5588166,37.2430769 15.5356213,38.2066272 L7.99668639,38.2066272 L7.99668639,29.3228402 Z" id="Shape"></path>
                <path d="M38.5228402,28.3512426 L41.6575148,28.3512426 C42.1498225,28.3512426 42.5491124,27.9528994 42.5491124,27.4646154 C42.5491124,26.9760947 42.151716,26.5777515 41.6575148,26.5777515 L38.5228402,26.5777515 C38.0305325,26.5777515 37.6310059,26.9742012 37.6310059,27.4646154 C37.6331361,27.9531361 38.0343195,28.3512426 38.5228402,28.3512426 Z" id="Shape"></path>
                <path d="M44.3360947,26.5777515 C43.8478107,26.5777515 43.4454438,26.9742012 43.4454438,27.4665089 C43.4454438,27.9557396 43.8466272,28.3552663 44.3360947,28.3552663 L47.4719527,28.3552663 C47.9633136,28.3552663 48.3607101,27.9557396 48.3607101,27.4665089 C48.3607101,26.9779882 47.9633136,26.5777515 47.4719527,26.5777515 L44.3360947,26.5777515 Z" id="Shape"></path>
                <path d="M49.2665089,27.4646154 C49.2665089,27.9528994 49.6639053,28.3512426 50.1514793,28.3512426 L53.2889941,28.3512426 C53.7775148,28.3512426 54.1768047,27.9528994 54.1768047,27.4646154 C54.1768047,26.9760947 53.7794083,26.5777515 53.2889941,26.5777515 L50.1495858,26.5777515 C49.6639053,26.5777515 49.2665089,26.9777515 49.2665089,27.4646154 Z" id="Shape"></path>
                <path d="M41.4272189,25.767574 L44.5647337,25.767574 C45.0532544,25.767574 45.4506509,25.368284 45.4506509,24.8788166 C45.4506509,24.3921893 45.0532544,23.9928994 44.5647337,23.9928994 L41.4272189,23.9928994 C40.939645,23.9928994 40.540355,24.3886391 40.540355,24.8788166 C40.5422485,25.367574 40.939645,25.767574 41.4272189,25.767574 Z" id="Shape"></path>
                <path d="M46.355503,24.8788166 C46.355503,25.3701775 46.7528994,25.767574 47.2414201,25.767574 L50.3789349,25.767574 C50.8667456,25.767574 51.2639053,25.3701775 51.2639053,24.8788166 C51.2639053,24.3921893 50.8665089,23.9928994 50.3789349,23.9928994 L47.2414201,23.9928994 C46.7528994,23.9928994 46.355503,24.392426 46.355503,24.8788166 Z" id="Shape"></path>
                <path d="M44.3360947,23.0901775 L47.4719527,23.0901775 C47.9633136,23.0901775 48.3607101,22.6906509 48.3607101,22.2004734 C48.3607101,21.7110059 47.9633136,21.315503 47.4719527,21.315503 L44.3360947,21.315503 C43.8478107,21.315503 43.4454438,21.7128994 43.4454438,22.2004734 C43.4473373,22.6906509 43.8494675,23.0901775 44.3360947,23.0901775 Z" id="Shape"></path>
            </g>
        </g>
    </g>
</svg>