<?xml version="1.0" encoding="UTF-8"?>
<svg width="32px" height="32px" viewBox="0 0 32 32" version="1.1" xmlns="http://www.w3.org/2000/svg" xmlns:xlink="http://www.w3.org/1999/xlink">
    <!-- Generator: Sketch 51.2 (57519) - http://www.bohemiancoding.com/sketch -->
    <title>dinner</title>
    <desc>Created with Sketch.</desc>
    <defs></defs>
    <g id="icons" stroke="none" stroke-width="1" fill="none" fill-rule="evenodd">
        <path d="M23.4134878,0 C24.8357295,0 25.9927227,1.15655572 25.9927227,2.57810989 C25.9927227,3.99978906 24.8357295,5.15634479 23.4135503,5.15634479 L21.9953711,5.15634479 L20.1577569,5.15634479 L19.2673871,5.15634479 C18.5721412,5.15634479 18.006457,5.72152898 18.006457,6.4163374 L18.006457,7.55251825 C18.006457,7.82301666 17.7871458,8.04232788 17.5166474,8.04232788 C17.2461489,8.04232788 17.0268377,7.82301666 17.0268377,7.55258075 L17.0268377,6.4163999 C17.0268377,5.18146964 18.0318943,4.17678803 19.2673246,4.17678803 L20.1576944,4.17678803 L21.9953086,4.17678803 L23.4134878,4.17678803 C24.2955451,4.17678803 25.0131034,3.45966723 25.0131034,2.57817239 C25.0131034,1.69667756 24.2954826,0.97961926 23.4134878,0.97961926 L21.9719338,0.97961926 C21.7014353,0.97961926 21.4821241,0.760308045 21.4821241,0.48980963 C21.4821241,0.219311215 21.7014353,0 21.9719338,0 L23.4134878,0 Z M10.5129384,11.008873 C10.7834368,11.008873 11.002748,11.2280592 11.002748,11.4985576 C11.002748,11.769056 10.7834368,11.9883673 10.5129384,11.9883673 L6.78208526,11.9883673 C5.24053179,11.9883673 3.98628914,10.7346246 3.98628914,9.19375863 C3.98628914,7.65283016 5.24046929,6.39915 6.78208526,6.39915 L8.4988252,6.39915 C8.76932362,6.39915 8.98863483,6.61846122 8.98863483,6.88895964 C8.98863483,7.15945805 8.76932362,7.37876927 8.4988252,7.37876927 L6.78208526,7.37876927 C5.78059113,7.37876927 4.9658459,8.19301449 4.9658459,9.19382113 C4.9658459,10.1946278 5.78065363,11.008873 6.78208526,11.008873 L10.5129384,11.008873 Z M12.1877411,1.24711769 C13.8789187,1.24711769 15.2547856,2.62242213 15.2547856,4.31291223 C15.2547856,6.00346482 13.8789187,7.37876927 12.1877411,7.37876927 L10.1735654,7.37876927 C9.90306697,7.37876927 9.68375576,7.15945805 9.68375576,6.88895964 C9.68375576,6.61846122 9.90306697,6.39915 10.1735654,6.39915 L12.1876786,6.39915 C13.3386718,6.39915 14.2751039,5.46328049 14.2751039,4.31291223 C14.2751039,3.16260647 13.3386718,2.22673695 12.1876786,2.22673695 L9.91356691,2.22673695 C9.6430685,2.22673695 9.42381978,2.00742574 9.42381978,1.73692732 C9.42381978,1.46642891 9.643131,1.24711769 9.91362941,1.24711769 L12.1877411,1.24711769 Z M23.6183616,7.36089437 C25.094353,7.36089437 26.2950959,8.56119984 26.2950959,10.0366287 C26.2950959,11.5120575 25.094353,12.712363 23.6183616,12.712363 L20.3598182,12.712363 C20.0893198,12.712363 19.8700086,12.4930518 19.8700086,12.2225534 C19.8700086,11.952055 20.0893198,11.7327438 20.3598182,11.7327438 L23.6183616,11.7327438 C24.5541686,11.7327438 25.3154767,10.9718732 25.3155392,10.0366287 C25.3155392,9.10138417 24.5541686,8.34051363 23.6183616,8.34051363 L22.4484935,8.34051363 C22.1779951,8.34051363 21.9586838,8.12120241 21.9586838,7.850704 C21.9586838,7.58020558 22.1779951,7.36089437 22.4484935,7.36089437 L23.6183616,7.36089437 Z M29.9788243,18.3853298 C30.9652561,18.3853298 31.7677514,19.1877626 31.7677514,20.1738818 C31.7677514,21.160001 30.9651311,21.9623088 29.9786993,21.9623088 L28.417646,21.9623088 C27.814712,23.4039879 26.8981549,24.7097302 25.7163493,25.7820364 C24.148421,27.2047781 22.2145573,28.1217102 20.1487569,28.4437708 L20.5255672,29.361578 L21.3608748,29.361578 C21.9969336,29.361578 22.5144931,29.8789499 22.5144931,30.5148837 L22.5144931,30.8466943 C22.5144931,31.482628 21.9969961,32 21.3608748,32 L19.1492003,32 C18.8787019,32 18.6593907,31.7806888 18.6593907,31.5101904 C18.6593907,31.239692 18.8787019,31.0203807 19.1492003,31.0203807 L21.3608748,31.0203807 C21.4568118,31.0203807 21.5349363,30.9425062 21.5349363,30.8466943 L21.5349363,30.5148837 C21.5349363,30.4191343 21.4568743,30.3411972 21.3608748,30.3411972 L10.4070015,30.3411972 C10.3110646,30.3411972 10.23294,30.4190718 10.23294,30.5148837 L10.23294,30.8466943 C10.23294,30.9424437 10.3110021,31.0203807 10.4070015,31.0203807 L17.1900868,31.0203807 C17.4605852,31.0203807 17.6798964,31.239692 17.6798964,31.5101904 C17.6798964,31.7806888 17.4605852,32 17.1900868,32 L10.4068765,32 C9.77081775,32 9.25325828,31.482628 9.25325828,30.8466943 L9.25325828,30.5148837 C9.25325828,29.8789499 9.77075525,29.361578 10.4068765,29.361578 L11.2421841,29.361578 L11.6189944,28.4437708 C9.55325652,28.1217727 7.61933036,27.2048406 6.05140204,25.7820364 C4.86965897,24.7096677 3.95310184,23.4039879 3.35010537,21.9623088 L1.78905202,21.9623088 C0.802557798,21.9623088 0,21.160001 0,20.1738818 C0,19.1877626 0.802557798,18.3854548 1.78905202,18.3854548 L3.39348012,18.3854548 C3.23354355,18.0332693 3.11191927,17.6759589 3.03510722,17.3206485 C2.78654617,16.1702178 3.01666982,15.1697236 3.68316592,14.50354 C4.17010057,14.0169179 4.84528411,13.7596694 5.63565448,13.7596694 C6.63227364,13.7596694 7.7317672,14.170917 8.71794892,14.8904128 L10.1689404,13.4402337 C10.3804392,13.22886 10.6615625,13.1124232 10.9606233,13.1124232 C11.2596215,13.1124232 11.5408699,13.22886 11.7523061,13.4402337 L12.5327391,14.2202292 L13.2201725,11.2374342 C13.3681717,10.5953754 13.9317309,10.1470655 14.5906645,10.1470655 L17.1771494,10.1470655 C17.836083,10.1470655 18.3996422,10.5955004 18.5475788,11.2374342 L18.8069523,12.3633026 C18.8677019,12.626926 18.7032654,12.8897995 18.4397045,12.9506116 C18.176206,13.0111113 17.9132075,12.8469872 17.8523954,12.5833638 L17.5928969,11.4573079 C17.5480222,11.262684 17.3770857,11.1266223 17.1770244,11.1266223 L14.5905395,11.1266223 C14.3904782,11.1266223 14.2194792,11.2626215 14.1745419,11.4573704 L13.0284237,16.4307162 C13.8029191,16.7928391 14.3744158,17.5176474 14.5234774,18.3853298 L14.598852,18.3853298 L16.9444632,16.0409685 C17.1558995,15.8295947 17.4370228,15.7131579 17.7361461,15.7131579 C18.0350818,15.7131579 18.3163302,15.8295947 18.5277664,16.0409685 L18.685703,16.1988426 L18.2738929,14.4119781 C18.2132058,14.1483546 18.3777048,13.8854186 18.6412658,13.824669 C18.9049517,13.7640444 19.1677627,13.9283559 19.2285748,14.1919793 L19.6773222,16.1392179 L20.6418166,15.1752236 C20.8533153,14.9638498 21.1344387,14.847538 21.4334369,14.847538 C21.7323727,14.847538 22.0135585,14.9638498 22.2249948,15.1750986 L23.642924,16.5922778 C23.8677976,16.5302156 24.1043588,16.4964658 24.3487323,16.4964658 C25.5467878,16.4964658 26.5618444,17.2937737 26.8912174,18.3853298 L29.9788243,18.3853298 Z M1.78905202,20.9825646 L2.99560745,20.9825646 C2.8334834,20.4560676 2.71129661,19.9155708 2.63160958,19.364949 L1.78905202,19.364949 C1.34280463,19.364949 0.97961926,19.7277594 0.97961926,20.1737568 C0.97961926,20.6197542 1.34274213,20.9825646 1.78905202,20.9825646 Z M24.3487323,17.4760851 C23.7009236,17.4760851 23.1393644,17.8462704 22.8607411,18.3853298 L25.8367236,18.3853298 C25.5580377,17.8463329 24.996541,17.4760851 24.3487323,17.4760851 Z M21.3341875,15.8680945 L19.8446962,17.3569608 L20.8735652,18.3853298 L21.8062472,18.3853298 C21.9671213,17.8523954 22.2916819,17.3899606 22.7209919,17.0558376 L21.5326238,15.868032 C21.4988115,15.8342197 21.4599993,15.8270948 21.4334369,15.8270948 C21.4068746,15.8270948 21.3681248,15.8341572 21.3341875,15.8680945 Z M17.6370842,16.7338395 L15.9847188,18.3853923 L19.4878858,18.3853923 L17.835458,16.7339019 C17.8015207,16.6999646 17.7627709,16.6928397 17.7362711,16.6928397 C17.7097712,16.6928397 17.6710215,16.6999646 17.6370842,16.7338395 Z M13.5209833,18.3853298 C13.3235469,17.6801464 12.6752382,17.1612744 11.9074927,17.1613369 C11.5387449,17.1613369 11.1978719,17.2817112 10.920936,17.4843351 C11.0659352,17.7816458 11.182247,18.083394 11.269059,18.3853298 L13.5209833,18.3853298 Z M10.8615614,14.1329172 L9.4715695,15.522284 C9.50731929,15.5566588 9.54288158,15.5914086 9.57813138,15.6266584 C9.89581702,15.9441566 10.1782529,16.2840921 10.4225014,16.63734 C10.8466239,16.3500917 11.357621,16.1817802 11.9074302,16.1817802 C11.9651799,16.1817802 12.0223671,16.1842177 12.0792417,16.1879051 L12.2733031,15.3457851 L11.0598727,14.1329172 C11.0259354,14.0989799 10.9872481,14.0918549 10.9607483,14.0918549 C10.9342484,14.0918549 10.8954987,14.0989799 10.8615614,14.1329172 Z M4.37584936,15.1962235 C3.95297684,15.618971 3.81691514,16.299842 3.9927891,17.1135247 C4.08435107,17.5372097 4.25497507,17.9669572 4.49097369,18.3852673 L5.29328148,18.3852673 L7.12083328,16.558528 C7.31201966,16.3672791 7.62220534,16.3672791 7.81345422,16.5587155 C8.0047031,16.7499644 8.0046406,17.06015 7.81326672,17.2513364 L6.67883587,18.3852048 L10.2406275,18.3852048 C9.98119152,17.664209 9.51269426,16.9460882 8.88563544,16.3193419 C7.89557874,15.3297852 6.68064836,14.7390386 5.63584198,14.7390386 C5.26978162,14.7390386 4.75390965,14.8183507 4.37584936,15.1962235 Z M12.3011779,29.3613905 L19.4665734,29.3613905 L19.1346379,28.5527702 C18.9181392,28.5658326 18.7006404,28.5730826 18.4823917,28.5730826 L13.2853597,28.5730826 C13.0671109,28.5730826 12.8496747,28.5658326 12.6331135,28.5527702 L12.3011779,29.3613905 Z M25.0581032,25.0563532 C26.713406,23.5544245 27.7969621,21.5500612 28.1457101,19.3648865 L3.62197878,19.3648865 C3.97085173,21.5499987 5.05447038,23.554362 6.70971069,25.0563532 C8.51276262,26.6924686 10.8480614,27.5934633 13.2854222,27.5934633 L18.4824542,27.5934633 C20.9198149,27.5934633 23.2550512,26.6924061 25.0581032,25.0563532 Z M29.9788243,20.9825646 C30.4251342,20.9825646 30.7881946,20.6197542 30.7881946,20.1737568 C30.7881946,19.7277594 30.4251342,19.364949 29.9787618,19.364949 L29.1362043,19.364949 C29.0565172,19.9155708 28.9343305,20.4561301 28.7722064,20.9825646 L29.9788243,20.9825646 Z M25.2321022,23.2509263 C25.4326635,23.4324877 25.4480384,23.7422359 25.2664145,23.9427347 C25.0643531,24.1658584 24.8492294,24.3811696 24.6269182,24.5827935 C22.9422406,26.1115345 20.7600034,26.9535296 18.4823917,26.9535296 C18.2118933,26.9535296 17.9925821,26.7342184 17.9926446,26.4637199 C17.9926446,26.1932215 18.2119558,25.9739103 18.4824542,25.9739103 C20.5161923,25.9739103 22.4646184,25.2221647 23.9688596,23.8572352 C24.1675459,23.6770488 24.3597948,23.4846749 24.5402937,23.2853011 C24.7218551,23.0847397 25.0315408,23.0693648 25.2321022,23.2509263 Z M6.30702554,15.5687838 C6.53052424,15.7920325 6.53039924,16.1540928 6.30696305,16.377404 C6.08358935,16.6007777 5.72127898,16.6008402 5.49790529,16.3774665 C5.2744066,16.1540928 5.2744066,15.7920325 5.49790529,15.5687213 C5.72127898,15.3454101 6.08358935,15.3453476 6.30702554,15.5687838 Z M26.8655301,20.0289451 C27.1227786,20.1128197 27.2633403,20.389318 27.1794032,20.6464415 C26.9297797,21.412437 26.5787193,22.1429328 26.1362219,22.8176788 C26.0421599,22.9611155 25.8857858,23.0389275 25.7262243,23.0389275 C25.6340998,23.0389275 25.5409128,23.0129902 25.4581008,22.958678 C25.2319147,22.8103038 25.16879,22.5067431 25.3171017,22.280432 C25.7120368,21.678248 26.025285,21.0263768 26.2480337,20.3428808 C26.3319082,20.0856323 26.6082816,19.9451956 26.8655301,20.0289451 Z" id="dinner" fill="#000000" fill-rule="nonzero"></path>
    </g>
</svg>