<?xml version="1.0" encoding="UTF-8"?>
<svg width="36px" height="40px" viewBox="0 0 36 40" version="1.1" xmlns="http://www.w3.org/2000/svg" xmlns:xlink="http://www.w3.org/1999/xlink">
    <!-- Generator: Sketch 51.2 (57519) - http://www.bohemiancoding.com/sketch -->
    <title>milk-products</title>
    <desc>Created with Sketch.</desc>
    <defs></defs>
    <g id="Page-1" stroke="none" stroke-width="1" fill="none" fill-rule="evenodd">
        <g id="dailey-listing" transform="translate(-182.000000, -218.000000)" fill="#EAC248" fill-rule="nonzero">
            <g id="milk-products" transform="translate(182.000000, 218.000000)">
                <path d="M20.3678641,9.95728155 C22.0119417,10.352233 24.185534,10.5699029 26.4882524,10.5699029 C28.7909709,10.5699029 30.964466,10.3523301 32.6086408,9.95728155 C33.1946602,9.81640777 33.6948544,9.65776699 34.1104854,9.48029126 L34.1104854,11.0187379 C33.968835,11.1709709 33.3669903,11.542233 31.8273786,11.8627184 C30.3530097,12.1698058 28.4568932,12.338835 26.4883495,12.338835 C23.9175728,12.338835 21.4832039,12.0473786 19.9766019,11.5592233 C19.568835,11.4270874 19.1305825,11.6505825 18.9983495,12.0587379 C18.8661165,12.4668932 19.0897087,12.9047573 19.4978641,13.0369903 C21.1753398,13.5805825 23.723301,13.8923301 26.4884466,13.8923301 C28.791068,13.8923301 30.9645631,13.6747573 32.6087379,13.2796117 C32.8141748,13.2301942 33.0090291,13.1786408 33.1933981,13.1248544 L32.2556311,18.7801942 C32.1854369,19.203301 32.4717476,19.6033981 32.8948544,19.6734951 C32.9378641,19.6805825 32.9806796,19.6839806 33.0228155,19.6839806 C33.3959223,19.6839806 33.7250485,19.414466 33.7881553,19.0342718 L34.8915534,12.3797087 C35.408835,12.0152427 35.6638835,11.5895146 35.6638835,11.0973786 L35.6638835,7.77504854 C35.6638835,6.80067961 34.664466,6.08679612 32.6086408,5.59281553 C30.9645631,5.19776699 28.7909709,4.98009709 26.4882524,4.98009709 C24.185534,4.98009709 22.0119417,5.1976699 20.3678641,5.59281553 C18.3119417,6.08679612 17.3125243,6.80058252 17.3125243,7.77504854 C17.3125243,8.74951456 18.3119417,9.46320388 20.3678641,9.95728155 Z M21.1490291,7.00961165 C22.6234951,6.70262136 24.5196117,6.53359223 26.4882524,6.53359223 C28.4568932,6.53359223 30.3531068,6.70262136 31.8274757,7.00961165 C33.1450485,7.28398058 33.7757282,7.59543689 34.0190291,7.77504854 C33.7757282,7.95466019 33.1449515,8.26601942 31.8273786,8.54038835 C30.3529126,8.84737864 28.4567961,9.01640777 26.4882524,9.01640777 C24.5197087,9.01640777 22.6233981,8.84737864 21.1490291,8.54038835 C19.8314563,8.26601942 19.2006796,7.95456311 18.9573786,7.77504854 C19.2005825,7.59543689 19.8313592,7.28398058 21.1490291,7.00961165 Z M32.3192233,21.0797087 C32.2624272,21.0583495 32.2143689,21.0395146 32.173301,21.0234951 C31.9086408,20.92 31.3575728,20.7043689 30.9114563,21.3236893 C30.8802913,21.3670874 30.8507767,21.4080583 30.7956311,21.4669903 C30.4365049,21.8491262 29.3115534,22.2359223 27.8565049,22.2359223 C26.0071845,22.2359223 24.9759223,21.6435922 24.861165,21.3968932 C24.8856311,21.3527184 24.9747573,21.2451456 25.1897087,21.117767 C25.4827184,20.9442718 25.6285437,20.6000971 25.5492233,20.268932 C25.4700971,19.9376699 25.1843689,19.696699 24.8445631,19.674466 C23.9616505,19.6167961 23.0526214,19.5874757 22.1425243,19.5874757 C15.3370874,19.5874757 8.44786408,21.2420388 8.44786408,24.404466 L8.44786408,35.1136893 C8.44786408,38.2761165 15.3370874,39.9307767 22.1425243,39.9307767 C28.9479612,39.9307767 35.8372816,38.2761165 35.8372816,35.1136893 L35.8372816,24.404466 C35.8372816,22.6667961 33.6332039,21.5756311 32.3192233,21.0797087 Z M34.2838835,35.1136893 C34.2838835,35.6223301 33.4357282,36.4817476 31.0451456,37.2294175 C28.6782524,37.9697087 25.516699,38.3773786 22.1426214,38.3773786 C18.7686408,38.3773786 15.6069903,37.9697087 13.2401942,37.2294175 C10.8496117,36.4817476 10.0014563,35.6223301 10.0014563,35.1136893 L10.0014563,26.7619417 C12.4170874,28.3839806 17.3012621,29.2215534 22.1427184,29.2215534 C26.9842718,29.2215534 31.8684466,28.3839806 34.2840777,26.7619417 L34.2840777,35.1136893 L34.2838835,35.1136893 Z M13.5119417,26.6027184 C13.8627184,26.371068 14.6894175,26.0641748 15.9293204,26.0641748 C17.4165049,26.0641748 18.3091262,26.5056311 18.4994175,26.7293204 C18.3714563,26.8743689 17.8913592,27.1773786 16.9431068,27.3218447 C15.6916505,27.1452427 14.5331068,26.9035922 13.5119417,26.6027184 Z M33.3301942,25.5294175 C33.3047573,25.1233981 32.9674757,24.8020388 32.5550485,24.8020388 L32.3597087,24.8020388 C31.9307767,24.8020388 31.5830097,25.1498058 31.5830097,25.5787379 C31.5830097,25.8434951 31.7153398,26.0771845 31.9175728,26.2173786 C31.6528155,26.3196117 31.3625243,26.4208738 31.0450485,26.5200971 C28.6782524,27.2603883 25.5166019,27.6680583 22.1425243,27.6680583 C21.3431068,27.6680583 20.5554369,27.6452427 19.7876699,27.6003883 C19.9759223,27.3371845 20.0758252,27.0443689 20.0758252,26.7302913 C20.0758252,25.2731068 17.99,24.5107767 15.9294175,24.5107767 C14.2190291,24.5107767 12.491165,25.0361165 11.953301,26.0480583 C10.5361165,25.4333981 10.0013592,24.8083495 10.0013592,24.404466 C10.0013592,24.0353398 10.4480583,23.4815534 11.606699,22.9198058 C11.6498058,23.307767 11.9790291,23.6095146 12.3785437,23.6095146 L12.5738835,23.6095146 C13.0028155,23.6095146 13.3505825,23.2617476 13.3505825,22.8328155 C13.3505825,22.6343689 13.2761165,22.4533981 13.1537864,22.3161165 C13.1823301,22.3068932 13.211165,22.2978641 13.2401942,22.288835 C15.6070874,21.5485437 18.7686408,21.1408738 22.1426214,21.1408738 C22.5371845,21.1408738 22.9313592,21.1466019 23.3231068,21.1579612 C23.3083495,21.2469903 23.3032039,21.3272816 23.3032039,21.3957282 C23.3032039,22.9671845 25.5938835,23.7892233 27.8565049,23.7892233 C29.6026214,23.7892233 31.1358252,23.3260194 31.8833981,22.5763107 C33.281165,23.123301 34.2839806,23.8834951 34.2839806,24.404466 C34.2838835,24.6942718 34.0087379,25.0976699 33.3301942,25.5294175 Z M20.6536893,22.6896117 C20.6536893,23.1185437 20.3059223,23.4663107 19.8769903,23.4663107 L19.6814563,23.4663107 C19.2525243,23.4663107 18.9047573,23.1185437 18.9047573,22.6896117 C18.9047573,22.2606796 19.2525243,21.9129126 19.6814563,21.9129126 L19.8769903,21.9129126 C20.3059223,21.9129126 20.6536893,22.2606796 20.6536893,22.6896117 Z M25.0170874,25.7935922 C25.0170874,26.2225243 24.6693204,26.5702913 24.2403883,26.5702913 L24.0449515,26.5702913 C23.6160194,26.5702913 23.2682524,26.2225243 23.2682524,25.7935922 C23.2682524,25.3646602 23.6160194,25.0168932 24.0449515,25.0168932 L24.2403883,25.0168932 C24.6693204,25.0168932 25.0170874,25.3646602 25.0170874,25.7935922 Z M12.7023301,18.0515534 L12.7023301,14.8236893 C12.7023301,13.5254369 12.5302913,12.5646602 12.1083495,11.5074757 C11.9494175,11.1090291 12.1434951,10.6571845 12.5419417,10.4981553 C12.9403883,10.3390291 13.3921359,10.533301 13.5512621,10.9317476 C14.0451456,12.1694175 14.2558252,13.333301 14.2558252,14.8236893 L14.2558252,18.0515534 C14.2558252,18.4804854 13.9080583,18.8282524 13.4791262,18.8282524 C13.0501942,18.8282524 12.7023301,18.4804854 12.7023301,18.0515534 Z M6.37300971,35.9032039 C4.62398058,35.9032039 3.20116505,34.5607767 3.20116505,32.9107767 L3.20116505,14.5497087 C3.20116505,12.2947573 3.74970874,11.2045631 4.65873786,9.39815534 C4.70873786,9.29883495 4.76,9.19679612 4.81252427,9.09203883 L14.2867961,9.09203883 C14.3393204,9.1968932 14.3905825,9.29893204 14.4406796,9.39834951 C15.3494175,11.2045631 15.8980583,12.2948544 15.8980583,14.5497087 L15.8980583,17.321068 C15.8980583,17.75 16.2458252,18.097767 16.6747573,18.097767 C17.1036893,18.097767 17.4514563,17.75 17.4514563,17.321068 L17.4514563,14.5497087 C17.4514563,11.9261165 16.7705825,10.5730097 15.8283495,8.70019417 C15.7128155,8.47048544 15.5933981,8.23330097 15.4704854,7.98456311 C15.4665049,7.9761165 15.4623301,7.9676699 15.4580583,7.95941748 C15.0950485,7.22378641 14.7009709,6.3861165 14.2803883,5.34038835 L14.2802913,5.11165049 C14.6265049,4.72737864 14.8374757,4.21893204 14.8374757,3.66213592 L14.8374757,2.16757282 C14.8375728,0.972427184 13.8651456,0 12.67,0 L6.42902913,0 C5.2338835,0 4.2615534,0.972427184 4.2615534,2.16757282 L4.2615534,3.38504854 L2.21679612,2.54378641 C1.82038835,2.3807767 1.36621359,2.56980583 1.20300971,2.96650485 C1.03980583,3.36320388 1.22912621,3.81708738 1.62572816,3.98029126 L3.89747573,4.91495146 L0.382621359,7.10038835 C0.0182524272,7.3268932 -0.0933980583,7.80582524 0.133106796,8.17009709 C0.359514563,8.53436893 0.838543689,8.64621359 1.20281553,8.41961165 L4.34271845,6.46737864 C4.09776699,7.01961165 3.86339806,7.50902913 3.64087379,7.96019417 C3.6368932,7.96796117 3.63300971,7.97582524 3.6292233,7.98378641 C3.50621359,8.23262136 3.38679612,8.47009709 3.27116505,8.7 C2.32873786,10.5728155 1.64786408,11.9261165 1.64786408,14.5497087 L1.64786408,32.9106796 C1.64786408,35.4172816 3.76757282,37.4565049 6.3731068,37.4565049 C6.80203883,37.4565049 7.14980583,37.1087379 7.14980583,36.6798058 C7.14980583,36.2508738 6.80194175,35.9032039 6.37300971,35.9032039 Z M5.81495146,2.16757282 C5.81495146,1.82893204 6.09048544,1.55339806 6.42902913,1.55339806 L12.6699029,1.55339806 C13.0085437,1.55339806 13.2840777,1.82893204 13.2840777,2.16757282 L13.2840777,3.66223301 C13.2840777,3.85223301 13.1972816,4.02242718 13.0613592,4.13524272 C13.0451456,4.14650485 13.0293204,4.15834951 13.0139806,4.1707767 C12.9157282,4.23757282 12.7973786,4.27650485 12.6699029,4.27650485 L6.42902913,4.27650485 C6.30271845,4.27650485 6.18524272,4.23815534 6.08757282,4.17262136 C6.0707767,4.15883495 6.05349515,4.14601942 6.03582524,4.13378641 C5.90087379,4.02106796 5.81495146,3.8515534 5.81495146,3.6623301 L5.81495146,2.16757282 Z M6.29796117,5.82601942 C6.34135922,5.82854369 6.38495146,5.82990291 6.42912621,5.82990291 L12.67,5.82990291 C12.7140777,5.82990291 12.7579612,5.82854369 12.8014563,5.82592233 C13.054466,6.45980583 13.3012621,7.02679612 13.5363107,7.53873786 L5.56291262,7.53873786 C5.79805825,7.02679612 6.04485437,6.45990291 6.29796117,5.82601942 Z" id="XMLID_443_"></path>
            </g>
        </g>
    </g>
</svg>