<?xml version="1.0" encoding="UTF-8"?>
<svg width="32px" height="32px" viewBox="0 0 32 32" version="1.1" xmlns="http://www.w3.org/2000/svg" xmlns:xlink="http://www.w3.org/1999/xlink">
    <!-- Generator: Sketch 51.2 (57519) - http://www.bohemiancoding.com/sketch -->
    <title>lunch</title>
    <desc>Created with Sketch.</desc>
    <defs></defs>
    <g id="icons" stroke="none" stroke-width="1" fill="none" fill-rule="evenodd">
        <path d="M31.68,19.6266875 C30.72,18.3466875 29.76,18.3466875 27.4133125,19.573375 L22.826625,22.4 C22.186625,22.7733125 20.746625,22.88 19.4133125,22.88 C19.68,22.4 19.5733125,21.8133125 19.0933125,21.12 C18.24,19.8933125 16.8,19.1466875 15.2533125,19.1466875 L13.1733125,19.1466875 C12.0533125,19.1466875 10.986625,18.8266875 10.1333125,18.1866875 C8.208875,16.743375 5.1995625,18.313875 3.7333125,19.250625 L3.7333125,18.133375 L0,18.133375 L0,32 L3.7333125,32 L3.7333125,30.4 L10.666625,30.4 C11.7333125,30.4 12.8533125,30.2933125 13.9199375,30.24 L20.85325,29.1733125 C21.1199375,29.1733125 21.3865625,29.12 21.5999375,29.066625 C22.2399375,28.9599375 22.826625,28.6399375 23.3599375,28.1599375 L31.41325,21.7599375 C32.0533125,21.2266875 32.16,20.2666875 31.68,19.6266875 Z M2.666625,30.9333125 L1.066625,30.9333125 L1.066625,19.2 L2.666625,19.2 L2.666625,20 L2.666625,30.4 L2.666625,30.9333125 Z M30.7733125,21.0666875 L22.666625,27.36 L22.6133125,27.4133125 C22.24,27.7333125 21.866625,27.946625 21.44,28 L21.3866875,28 C21.173375,28.0533125 21.013375,28.0533125 20.8,28.0533125 L13.76,29.12 C12.7466875,29.28 11.68,29.3333125 10.6666875,29.3333125 L3.7333125,29.3333125 L3.7333125,20.5333125 C5.0133125,19.626625 8,17.92 9.4933125,19.0933125 C10.506625,19.84 11.84,20.266625 13.1733125,20.266625 L15.2533125,20.266625 C16.48,20.266625 17.6,20.7999375 18.2933125,21.866625 C18.506625,22.186625 18.56,22.506625 18.506625,22.6133125 C18.346625,22.88 17.706625,22.986625 17.0133125,23.04 C16.9414375,23.04 16.8698125,23.04 16.8,23.04 C16.6625,23.04 16.5328125,23.04 16.4266875,23.04 L11.6266875,23.04 C9.973375,23.04 8.96,23.84 8.96,25.1733125 C8.96,25.4933125 9.1733125,25.706625 9.4933125,25.706625 C9.8133125,25.706625 10.026625,25.4933125 10.026625,25.1733125 C10.026625,24.906625 10.026625,24.106625 11.626625,24.106625 L16.3733125,24.106625 C16.483875,24.106625 16.6209375,24.106625 16.8,24.106625 C16.880125,24.106625 16.96775,24.106625 17.0666875,24.106625 C17.12,24.106625 17.2266875,24.106625 17.333375,24.106625 C19.8400625,24.1599375 22.1866875,24.106625 23.413375,23.466625 L28.0000625,20.6399375 C30.2400625,19.5199375 30.453375,19.786625 30.8800625,20.426625 C30.986625,20.5866875 30.986625,20.9066875 30.7733125,21.0666875 Z M4.16,16.8533125 L2.2399375,14.1865625 C2.1333125,14.0265625 2.1333125,13.81325 2.186625,13.65325 C2.2399375,13.49325 2.4533125,13.33325 2.666625,13.33325 L3.745625,13.33325 C4.0175,6.98425 9.1176875,1.8840625 15.4666875,1.6121875 L15.4666875,1.066625 L14.4,1.066625 C14.08,1.066625 13.8666875,0.8533125 13.8666875,0.5333125 C13.8666875,0.2133125 14.08,0 14.4,0 L17.6,0 C17.92,0 18.133375,0.2133125 18.133375,0.5333125 C18.133375,0.8533125 17.9200625,1.066625 17.6000625,1.066625 L16.533375,1.066625 L16.533375,1.6121875 C22.882375,1.8840625 27.9825625,6.98425 28.2544375,13.33325 L29.333375,13.33325 C29.5466875,13.33325 29.7066875,13.4399375 29.813375,13.5999375 C29.9200625,13.7599375 29.86675,13.97325 29.7600625,14.13325 L27.8400625,16.7999375 C27.7866875,16.9599375 27.6266875,17.066625 27.413375,17.066625 L4.5866875,17.066625 C4.4266875,17.066625 4.2666875,16.96 4.16,16.8533125 Z M16,2.6666875 C10.026625,2.6666875 5.12,7.4133125 4.8,13.333375 L27.2,13.333375 C26.9333125,7.413375 22.0266875,2.6666875 16,2.6666875 Z M4.266625,14.4 L3.7333125,14.4 L4.8533125,16 L27.146625,16 L28.266625,14.4 L27.7333125,14.4 L4.266625,14.4 Z M16,3.7333125 C16.32,3.7333125 16.5333125,3.9466875 16.5333125,4.2666875 C16.5333125,4.5866875 16.32,4.8 16,4.8 C12.8,4.8 9.76,6.56 8.16,9.3333125 C8.0533125,9.4933125 7.8933125,9.6 7.68,9.6 C7.5733125,9.6 7.52,9.6 7.4133125,9.5466875 C7.1466875,9.3866875 7.0933125,9.0666875 7.2,8.8 C9.0666875,5.6533125 12.4266875,3.7333125 16,3.7333125 Z" id="lunch" fill="#000000" fill-rule="nonzero"></path>
    </g>
</svg>