<?xml version="1.0" encoding="UTF-8"?>
<svg width="24px" height="24px" viewBox="0 0 24 24" version="1.1" xmlns="http://www.w3.org/2000/svg" xmlns:xlink="http://www.w3.org/1999/xlink">
    <!-- Generator: Sketch 51.2 (57519) - http://www.bohemiancoding.com/sketch -->
    <title>meal</title>
    <desc>Created with Sketch.</desc>
    <defs></defs>
    <g id="Page-1" stroke="none" stroke-width="1" fill="none" fill-rule="evenodd">
        <g id="add_entry" transform="translate(-23.000000, -337.000000)" fill="#9B9B9B" fill-rule="nonzero">
            <path d="M35,337 C41.6243,337.0075 46.9925,342.3757 47,349 C47,355.6274 41.6274,361 35,361 C28.3726,361 23,355.6274 23,349 C23,342.3726 28.3726,337 35,337 Z M35,360.2 C41.18265,360.19295 46.19295,355.18265 46.2,349 C46.2,342.8144 41.1856,337.8 35,337.8 C28.8144,337.8 23.8,342.8144 23.8,349 C23.8,355.1856 28.8144,360.2 35,360.2 Z M40.0364784,345.030337 C40.2533145,345.74595 40.2988189,346.502574 40.1693294,347.23902 C40.0514292,347.858455 39.6586459,348.390798 39.1017054,348.685908 L39.3918904,355.168192 C39.4249025,355.519724 39.3083067,355.868846 39.0708005,356.129973 C39.0425546,356.160894 39.0129541,356.190511 38.9820492,356.218772 C38.4106095,356.741477 37.5237993,356.70172 37.0013759,356.129973 C36.7584513,355.861216 36.6416549,355.501552 36.680286,355.141286 L36.9688656,348.686711 C36.4111725,348.391751 36.017737,347.859057 35.8996361,347.23902 C35.7701466,346.502574 35.8156511,345.74595 36.0324871,345.030337 L36.2901618,344.181801 C36.4742868,343.639569 36.8998814,343.213745 37.441821,343.029521 C38.4051911,342.702033 39.4514927,343.217911 39.7788038,344.181801 L40.0364784,345.030337 Z M39.3786454,347.09927 C39.4858092,346.487867 39.4479808,345.859797 39.2682708,345.265662 L39.0105961,344.416724 C38.9051883,344.131603 38.6805257,343.906769 38.3955082,343.801305 C37.8563782,343.601821 37.2577462,343.877354 37.0583694,344.416724 L36.8006947,345.265662 C36.620784,345.859747 36.5829556,346.487867 36.6903201,347.09927 C36.777215,347.544721 37.094492,347.910208 37.5231471,348.058642 C37.6858493,348.119832 37.7906551,348.278858 37.7828285,348.452591 L37.4802013,355.205137 C37.4598823,355.346292 37.5030789,355.489254 37.5982018,355.595471 C37.8398722,355.834863 38.2290934,355.834863 38.4707637,355.595471 C38.5613713,355.497185 38.6052201,355.364614 38.5911724,355.231641 L38.286137,348.452591 C38.2783104,348.278858 38.3831162,348.119832 38.5458185,348.058642 C38.9744735,347.910208 39.2917505,347.544721 39.3786454,347.09927 Z M33.7711599,343.068966 C33.9927524,343.068966 34.1724138,343.248816 34.1724138,343.470692 L34.1724138,347.085781 C34.1724138,347.192325 34.1300815,347.294452 34.0548464,347.369766 L32.9770784,348.449071 L33.319348,355.30127 C33.3215047,355.345254 33.3215047,355.389288 33.319348,355.433271 C33.2829342,356.181745 32.6472476,356.758954 31.8995611,356.722502 C31.1518746,356.68605 30.5752727,356.049694 30.6116865,355.30122 L30.9539561,348.449021 L29.8761881,347.369716 C29.800953,347.294401 29.7586207,347.192275 29.7586207,347.085731 L29.7586207,343.470642 C29.7586207,343.248816 29.9382821,343.068966 30.1598746,343.068966 C30.3814671,343.068966 30.5611285,343.248816 30.5611285,343.470642 L30.5611285,346.919436 L31.6477241,348.006775 C31.7279248,348.08701 31.7705078,348.197471 31.7648903,348.310844 L31.4113856,355.340183 C31.4030094,355.491765 31.457931,355.640034 31.5630596,355.749491 C31.5642132,355.750646 31.5653668,355.751851 31.5665705,355.753006 C31.7882132,355.972924 32.145931,355.971317 32.3655674,355.749491 C32.4706458,355.640034 32.5256176,355.491765 32.5172414,355.340183 L32.1661442,348.310844 C32.160627,348.19742 32.2033605,348.086909 32.2837116,348.006775 L33.369906,346.919436 L33.369906,343.470642 C33.369906,343.248816 33.5495674,343.068966 33.7711599,343.068966 Z M31.4137931,343.068966 C31.6423103,343.068966 31.8275862,343.248066 31.8275862,343.468966 L31.8275862,346.668966 C31.8275862,346.889866 31.6423103,347.068966 31.4137931,347.068966 C31.1852759,347.068966 31,346.889866 31,346.668966 L31,343.468966 C31,343.248066 31.1852759,343.068966 31.4137931,343.068966 Z M32.6551724,343.068966 C32.8836897,343.068966 33.0689655,343.248066 33.0689655,343.468966 L33.0689655,346.668966 C33.0689655,346.889866 32.8836897,347.068966 32.6551724,347.068966 C32.4266552,347.068966 32.2413793,346.889866 32.2413793,346.668966 L32.2413793,343.468966 C32.2413793,343.248066 32.4266552,343.068966 32.6551724,343.068966 Z M36.3773724,356.522891 C36.3990369,356.736282 36.2365778,356.926141 36.0145285,356.946907 C35.3837308,357.017698 34.7465194,357.017698 34.1157217,356.946907 C33.8940258,356.921919 33.7354048,356.729053 33.7614124,356.51605 C33.78742,356.303048 33.9881582,356.150647 34.209854,356.175634 C34.7786376,356.239098 35.3532286,356.239098 35.9220122,356.175634 L35.9203962,356.176023 C35.9255977,356.175343 35.9307992,356.174761 35.9360008,356.174276 C36.1581006,356.153461 36.3557078,356.309549 36.3773724,356.522891 Z M41.1200451,343.90098 C43.7978752,347.069124 43.5925071,351.75355 40.6475486,354.676922 C40.491149,354.83222 40.2379616,354.831772 40.0821117,354.675926 C39.9262618,354.520081 39.9267115,354.26779 40.0831111,354.112493 C42.7330591,351.481194 42.9174407,347.26545 40.5072387,344.414424 C40.3649801,344.24623 40.3864663,343.994985 40.5552079,343.853181 C40.5558075,343.852733 40.5563571,343.852235 40.5569068,343.851787 C40.7260482,343.710381 40.9781862,343.732438 41.1200451,343.90098 Z M36.8971607,341.228455 C37.1095355,341.281481 37.240026,341.502324 37.1887001,341.721737 C37.1373741,341.941149 36.9236148,342.075964 36.7112401,342.022937 C35.31911,341.678008 33.8590397,341.770524 32.5181366,342.288582 C32.473931,342.3059 32.4270553,342.31484 32.3797345,342.315096 C32.2151256,342.314943 32.0677736,342.209553 32.0098217,342.050319 C31.9329317,341.83908 32.0363253,341.603372 32.240838,341.523934 C33.7298347,340.948557 35.351201,340.84567 36.8971607,341.228455 Z M29.9165816,354.11047 C28.5604981,352.766691 27.8004698,350.941461 27.8050958,349.039417 C27.8011235,347.519797 28.2860532,346.038611 29.1892876,344.811675 C29.3227891,344.635386 29.2870378,344.385078 29.1094381,344.252561 C28.9318384,344.120045 28.6796689,344.155533 28.5461674,344.331822 C28.5438041,344.334966 28.5414911,344.338111 28.5392283,344.341305 C26.2134866,347.515106 26.555713,351.895927 29.3465729,354.675873 C29.5038583,354.832097 29.7589945,354.832197 29.9163804,354.676072 C30.0737664,354.519948 30.0738669,354.266695 29.9165816,354.11047 Z" id="meal"></path>
        </g>
    </g>
</svg>