<?xml version="1.0" encoding="UTF-8"?>
<svg width="32px" height="25px" viewBox="0 0 32 25" version="1.1" xmlns="http://www.w3.org/2000/svg" xmlns:xlink="http://www.w3.org/1999/xlink">
    <!-- Generator: Sketch 51.2 (57519) - http://www.bohemiancoding.com/sketch -->
    <title>meat</title>
    <desc>Created with Sketch.</desc>
    <defs></defs>
    <g id="Symbols" stroke="none" stroke-width="1" fill="none" fill-rule="evenodd">
        <g id="Meet" transform="translate(0.000000, -6.000000)" fill="#000000" fill-rule="nonzero">
            <path d="M29.2791875,10.3528125 C27.82,9.189875 25.7604375,8.23775 23.1576875,7.523 C18.152,6.148375 12.5071875,6 10.3125625,6 C4.6261875,6 0,10.62625 0,16.312625 L0,20.682 C0,26.3684375 4.6261875,30.994625 10.3125625,30.994625 C12.934625,30.994625 14.9038125,30.17325 16.988625,29.303625 C19.144625,28.4043125 21.3739375,27.4744375 24.5093125,27.4744375 C28.6396875,27.4744375 32,24.1140625 32,19.98375 L32,15.614375 C32,13.5619375 31.0845625,11.7916875 29.2791875,10.3528125 Z M28.752875,21.0374375 C28.9895,21.288875 29.3850625,21.3006875 29.636375,21.064125 C30.06025,20.665 30.433125,20.2203125 30.75,19.7415 L30.75,19.98375 C30.75,23.4249375 27.9504375,26.2244375 24.5093125,26.2244375 C21.1236875,26.2244375 18.7769375,27.2033125 16.5074375,28.1499375 C14.541375,28.97 12.684375,29.744625 10.3125625,29.744625 C5.5113125,29.744625 1.57075,25.9913125 1.26925,21.26475 C3.02425,24.4568125 6.4198125,26.625125 10.3125625,26.625125 C12.934625,26.625125 14.9038125,25.80375 16.988625,24.934125 C19.144625,24.0348125 21.3739375,23.1049375 24.5093125,23.1049375 C24.74225,23.1049375 24.9775625,23.0939375 25.2088125,23.0723125 C25.5525,23.040125 25.805,22.7354375 25.7728125,22.39175 C25.740625,22.048125 25.4355625,21.7956875 25.09225,21.8278125 C24.8995625,21.8458125 24.7035,21.855 24.5093125,21.855 C21.1236875,21.855 18.7769375,22.833875 16.5074375,23.7805 C14.541375,24.6005625 12.684375,25.3751875 10.3125625,25.3751875 C5.3154375,25.3751875 1.25,21.30975 1.25,16.3126875 C1.25,11.3155625 5.3154375,7.2500625 10.3125625,7.2500625 C12.4565,7.2500625 17.967625,7.394125 22.8266875,8.7284375 C28.0841875,10.17225 30.75,12.489 30.75,15.614375 C30.75,17.3203125 30.03175,18.9749375 28.7795,20.1539375 C28.5281875,20.3905625 28.51625,20.786125 28.752875,21.0374375 Z M28.2389375,21.436375 C28.0919375,21.1240625 27.7195,20.99 27.4073125,21.137 C27.4028125,21.1390625 27.396875,21.142 27.3924375,21.1441875 C27.08375,21.2985625 26.958625,21.674 27.1129375,21.9826875 C27.2224375,22.2016875 27.4431875,22.3283125 27.6725,22.3283125 C27.765125,22.3283125 27.859125,22.307625 27.94775,22.2640625 C28.2541875,22.1145 28.384625,21.7459375 28.2389375,21.436375 Z M14.82425,8.6761875 L14.7920625,8.6735625 C14.4474375,8.6466875 14.14675,8.9028125 14.1193125,9.2469375 C14.091875,9.591 14.3485625,9.8921875 14.692625,9.9196875 L14.7245625,9.9221875 C14.7415,9.9235625 14.7583125,9.92425 14.7750625,9.92425 C15.097625,9.92425 15.3711875,9.676125 15.3974375,9.3490625 C15.4249375,9.0049375 15.1683125,8.70375 14.82425,8.6761875 Z M29.10975,13.930625 C28.4898125,12.705375 27.1104375,11.6465 25.0098125,10.7835 C23.310125,10.0851875 21.4513125,9.6440625 20.19125,9.396875 C19.4360625,9.2488125 18.6446875,9.1165625 17.8390625,9.0039375 C17.497375,8.9556875 17.181375,9.1944375 17.1335,9.536375 C17.0856875,9.87825 17.3240625,10.1940625 17.6659375,10.241875 C18.4490625,10.351375 19.21775,10.4798125 19.9506875,10.6235625 C24.2438125,11.4655 27.175625,12.8765625 27.994375,14.4948125 C28.166375,14.834875 28.25,15.2010625 28.25,15.6143125 C28.25,17.676875 26.5719375,19.3549375 24.5093125,19.3549375 C22.4238125,19.3549375 20.398625,19.69575 18.318,20.3969375 C17.421875,20.699 16.55175,21.0600625 15.7103125,21.4093125 C15.15375,21.64025 14.57825,21.879125 14.007,22.0955625 C12.5654375,22.6419375 11.4605,22.8750625 10.3125625,22.8750625 C6.6939375,22.8750625 3.7499375,19.931125 3.7499375,16.3125625 C3.7499375,12.6939375 6.6939375,9.7499375 10.3125625,9.7499375 C11.0185,9.7499375 11.7351875,9.7633125 12.4425625,9.7896875 C12.562625,9.794125 12.6828125,9.7989375 12.8030625,9.80425 C13.147625,9.819875 13.4398125,9.55225 13.455,9.207375 C13.47025,8.8625625 13.203,8.570625 12.8581875,8.5554375 C12.7350625,8.55 12.6119375,8.5450625 12.4890625,8.5405 C11.76625,8.5135625 11.0339375,8.4999375 10.3125,8.4999375 C6.004625,8.4999375 2.499875,12.004625 2.499875,16.3125625 C2.499875,20.620375 6.0045625,24.1250625 10.3125,24.1250625 C11.6209375,24.1250625 12.8583125,23.8676875 14.4499375,23.2644375 C15.039375,23.0410625 15.624,22.7984375 16.1894375,22.56375 C17.0115,22.222625 17.8615625,21.8698125 18.7171875,21.5814375 C20.6670625,20.9243125 22.5616875,20.604875 24.5093125,20.604875 C27.2611875,20.605 29.5,18.3661875 29.5,15.614375 C29.5,15.0005 29.3723125,14.44975 29.10975,13.930625 Z M10.911125,10.9860625 C9.163875,10.9860625 7.7423125,12.275125 7.7423125,13.859625 C7.7423125,15.444125 9.163875,16.7331875 10.911125,16.7331875 C12.6584375,16.7331875 14.0799375,15.444125 14.0799375,13.859625 C14.0799375,12.275125 12.6584375,10.9860625 10.911125,10.9860625 Z M10.911125,15.483125 C9.8530625,15.483125 8.9923125,14.7548125 8.9923125,13.8595625 C8.9923125,12.964375 9.8530625,12.236 10.911125,12.236 C11.9691875,12.236 12.8299375,12.9643125 12.8299375,13.8595625 C12.8299375,14.7548125 11.9691875,15.483125 10.911125,15.483125 Z" id="meat"></path>
        </g>
    </g>
</svg>