<?xml version="1.0" encoding="UTF-8"?>
<svg width="43px" height="40px" viewBox="0 0 43 40" version="1.1" xmlns="http://www.w3.org/2000/svg" xmlns:xlink="http://www.w3.org/1999/xlink">
    <!-- Generator: Sketch 51.2 (57519) - http://www.bohemiancoding.com/sketch -->
    <title>meat</title>
    <desc>Created with Sketch.</desc>
    <defs></defs>
    <g id="Page-1" stroke="none" stroke-width="1" fill="none" fill-rule="evenodd">
        <g id="dailey-listing" transform="translate(-286.000000, -218.000000)" fill="#C52C37" fill-rule="nonzero">
            <g id="meat" transform="translate(286.000000, 218.000000)">
                <path d="M9.66081871,16 L9.66081871,17.3052632 C10.4230746,17.3052632 11.0409357,17.8896132 11.0409357,18.6105263 C11.0409357,20.0522711 9.80512719,21.2210526 8.28070175,21.2210526 L4.14035088,21.2210526 C2.61592544,21.2210526 1.38011696,20.0522711 1.38011696,18.6105263 C1.38011696,17.8896132 1.99797807,17.3052632 2.76023392,17.3052632 L2.76023392,16 C1.23580848,16 0,17.1687816 0,18.6105263 C0,20.7731842 1.85366959,22.5263158 4.14035088,22.5263158 L8.28070175,22.5263158 C10.567383,22.5263158 12.4210526,20.7731842 12.4210526,18.6105263 C12.4210526,17.1687816 11.1852442,16 9.66081871,16 Z" id="Shape"></path>
                <rect id="Rectangle-path" x="4.21052632" y="16.6315789" width="4.21052632" height="1.26315789"></rect>
                <path d="M9.66081871,8 L9.66081871,9.30526316 C10.4230746,9.30526316 11.0409357,9.88961316 11.0409357,10.6105263 C11.0409357,12.0522711 9.80512719,13.2210526 8.28070175,13.2210526 L4.14035088,13.2210526 C2.61592544,13.2210526 1.38011696,12.0522711 1.38011696,10.6105263 C1.38011696,9.88961316 1.99797807,9.30526316 2.76023392,9.30526316 L2.76023392,8 C1.23580848,8 0,9.16878158 0,10.6105263 C0,12.7731842 1.85366959,14.5263158 4.14035088,14.5263158 L8.28070175,14.5263158 C10.567383,14.5263158 12.4210526,12.7731842 12.4210526,10.6105263 C12.4210526,9.16878158 11.1852442,8 9.66081871,8 Z" id="Shape"></path>
                <rect id="Rectangle-path" x="4.21052632" y="8.63157895" width="4.21052632" height="1.26315789"></rect>
                <path d="M41.8239637,16.4611061 C41.5370012,14.4437248 41.5370012,12.3989721 41.8239637,10.3815081 C41.9043935,9.8066256 41.9114671,9.22471414 41.8449226,8.64826042 C41.4773556,5.58042849 38.9337296,3.15272397 35.6969748,2.78035686 C33.7346093,2.56427975 31.7690125,3.15975288 30.3035479,4.41437285 C28.8014051,5.69562 27.9454082,7.52115324 27.9491633,9.43549889 C27.956499,10.221745 27.6291033,10.9776428 27.0409438,11.5325963 C25.359253,13.1039309 24.4152286,15.2494039 24.4210797,17.4865007 C24.427542,19.800833 25.4379363,22.0109719 27.2156014,23.5991759 C28.8066449,25.0592883 30.9313547,25.8815886 33.1469737,25.8947368 L33.6290287,25.8947368 C38.1579878,25.6091148 41.7249328,22.1258327 41.8868404,17.8305041 C41.9078866,17.3732112 41.8868404,16.9150086 41.8239637,16.4611061 Z M40.4895795,17.784196 C40.365136,21.3970582 37.3682734,24.3321677 33.5591657,24.571647 C31.5568035,24.6784038 29.5970579,23.9960202 28.1447799,22.6862439 C25.1437255,19.9749847 25.032032,15.4734195 27.8951941,12.6316705 C27.9382472,12.5889182 27.9818243,12.5467447 28.0260127,12.5050674 C28.8828829,11.696246 29.3589122,10.5942775 29.3464242,9.44872979 C29.3294824,7.90096273 30.0166728,6.4211694 31.2327264,5.3868439 C32.2400641,4.53080476 33.547027,4.0593713 34.9005361,4.06375403 C35.1101252,4.06375403 35.3197144,4.06375403 35.5293035,4.09683128 C38.1164193,4.39154955 40.1452421,6.34004746 40.4197165,8.79380031 C40.4826806,9.25936256 40.4826806,9.73071332 40.4197165,10.1962756 C40.1193054,12.3327349 40.1240212,14.4978061 40.4336891,16.6331078 C40.4835539,17.0149019 40.5022422,17.3997557 40.4895795,17.784196 Z" id="Shape"></path>
                <path d="M32.8421053,12.6315789 C30.1678797,12.6315789 28,14.705203 28,17.2631579 C28,19.8211128 30.1678797,21.8947368 32.8421053,21.8947368 C35.5163308,21.8947368 37.6842105,19.8211128 37.6842105,17.2631579 C37.6842105,14.705203 35.5163308,12.6315789 32.8421053,12.6315789 Z M32.8421053,20.5714286 C30.9319812,20.5714286 29.3834586,19.0902331 29.3834586,17.2631579 C29.3834586,15.4360827 30.9319812,13.9548872 32.8421053,13.9548872 C34.7522293,13.9548872 36.3007519,15.4360827 36.3007519,17.2631579 C36.3007519,19.0902331 34.7522293,20.5714286 32.8421053,20.5714286 Z" id="Shape"></path>
                <path d="M35.1578947,6.10526316 C33.4138596,6.10526316 32,7.47199415 32,9.15789474 C32,10.8437953 33.4138596,12.2105263 35.1578947,12.2105263 C36.9019298,12.2105263 38.3157895,10.8437953 38.3157895,9.15789474 C38.3119298,7.47352047 36.9003509,6.10899415 35.1578947,6.10526316 Z M35.1578947,10.8538012 C34.1889474,10.8538012 33.4035088,10.0945439 33.4035088,9.15789474 C33.4035088,8.22124561 34.1889474,7.4619883 35.1578947,7.4619883 C36.1268421,7.4619883 36.9122807,8.22124561 36.9122807,9.15789474 C36.9122807,10.0945439 36.1268421,10.8538012 35.1578947,10.8538012 Z" id="Shape"></path>
                <path d="M41.6221423,31.6516373 C42.0832922,30.9057726 42.2211222,30.0181354 42.0062157,29.1770628 C41.6876966,27.9634737 40.6812499,27.0227861 39.4015,26.7424009 C37.5204134,26.3381206 35.6514601,27.4629876 35.227059,29.254809 C35.2216471,29.2775924 35.216497,29.300459 35.2116088,29.3234086 L31.4127741,29.3234086 L28.8080584,27.3943049 C26.4280256,25.6280109 23.585359,24.5166974 20.5888885,24.1813494 L13.9548941,23.4363162 C13.7593659,23.4363162 13.5638376,23.3830995 13.3613262,23.3697954 L13.1029496,23.3697954 L12.6769773,23.3697954 C7.85615834,23.2871433 3.87768207,26.942878 3.79091641,31.5352258 C3.70415075,36.1274906 7.54182921,39.9173479 12.3627355,40 L12.6769773,40 C13.0508378,39.9971729 13.4241746,39.9704814 13.7942816,39.920175 L19.3808032,39.6274834 C23.1131234,39.4235971 26.6648418,38.0294871 29.4644747,35.6694947 L31.454673,33.9798659 L35.1976425,33.9798659 C35.5823269,35.7798361 37.4259663,36.942038 39.3155199,36.5755914 C39.3396118,36.570935 39.3636164,36.566029 39.3875337,36.5608737 C41.266438,36.1474468 42.4376872,34.3613628 42.0036843,32.5716202 C41.9253857,32.2485785 41.7967211,31.9385083 41.6221423,31.6516373 Z M13.675568,38.5298899 L13.675568,38.5631503 L12.4884322,38.6296711 C8.43890237,38.5782007 5.19985461,35.4093983 5.25388675,31.5518561 C5.30791889,27.6943138 8.63443063,24.6088288 12.6839605,24.6602993 C12.8655224,24.6602993 13.0401012,24.6602993 13.2216632,24.6602993 L13.8222142,24.7268201 C17.8177992,25.30763 20.5625271,28.8639992 19.9528107,32.670071 C19.4616332,35.7360155 16.9033555,38.1241961 13.675568,38.5298899 Z M28.5706312,34.6450741 C26.0087746,36.8079154 22.7565462,38.0851151 19.3389043,38.2704587 L17.8375266,38.3502837 C21.7187625,35.6574378 22.5735876,30.4772954 19.7467204,26.7800683 C19.3164709,26.2173022 18.8134221,25.7085011 18.2495326,25.2656387 L20.428276,25.5051137 C23.1740514,25.8178447 25.7787671,26.836611 27.963097,28.4519859 L30.490998,30.3227176 L30.490998,32.9820537 L28.5706312,34.6450741 Z M40.2464614,32.0707184 L40.2674108,32.0707184 C40.9779465,32.9405613 40.8137552,34.1943956 39.9006208,34.8712449 C39.1439962,35.4320985 38.0841283,35.4320985 37.3275038,34.8712449 C36.8247169,34.4960675 36.5290677,33.9229906 36.5244414,33.3146577 C36.5244414,32.9472965 36.2117707,32.6494496 35.8261262,32.6494496 L31.8876284,32.6494496 L31.8876284,30.653825 L35.8261262,30.653825 C36.2117707,30.653825 36.5244414,30.355978 36.5244414,29.9886168 C36.5202515,28.88645 37.4548591,27.9898325 38.6118801,27.9858413 C39.575555,27.9825152 40.4172867,28.6058985 40.6514842,29.4963628 C40.8096526,30.1036147 40.6596894,30.7462889 40.2464614,31.2325561 C40.0353956,31.4777685 40.0319913,31.8281669 40.2464614,32.0707184 Z" id="Shape"></path>
                <path d="M12.6315789,28.6315789 C10.8875439,28.6315789 9.47368421,29.9983099 9.47368421,31.6842105 C9.47368421,33.3701111 10.8875439,34.7368421 12.6315789,34.7368421 C14.375614,34.7368421 15.7894737,33.3701111 15.7894737,31.6842105 C15.7894737,29.9983099 14.375614,28.6315789 12.6315789,28.6315789 Z M12.6315789,33.380117 C11.6626316,33.380117 10.877193,32.6208596 10.877193,31.6842105 C10.877193,30.7475614 11.6626316,29.9883041 12.6315789,29.9883041 C13.6005263,29.9883041 14.3859649,30.7475614 14.3859649,31.6842105 C14.3859649,32.6208596 13.6005263,33.380117 12.6315789,33.380117 Z" id="Shape"></path>
                <path d="M19.4285714,14.9790997 L19.4285714,12.5423401 C21.7735338,12.1041218 23.5789474,9.48145138 23.5789474,6.30768824 C23.5789474,2.8285002 21.4069173,0 18.7368421,0 C16.0667669,0 13.8947368,2.8285002 13.8947368,6.30768824 C13.8947368,9.48145138 15.7001504,12.1041218 18.0451128,12.5423401 L18.0451128,14.9790997 C17.3136955,15.5983321 16.3710414,15.9384492 15.3957895,15.9352124 L14.5864662,15.9352124 L14.5864662,17.2631468 L15.3957895,17.2631468 C16.6066617,17.2655536 17.7832932,16.8773818 18.7368421,16.1609612 C19.690391,16.8773818 20.8670226,17.2655536 22.0778947,17.2631468 L22.887218,17.2631468 L22.887218,15.9352124 L22.0778947,15.9352124 C21.1026429,15.9385322 20.1599887,15.5983321 19.4285714,14.9790997 Z M18.7368421,1.32793437 C20.4039098,1.32793437 21.801203,3.0409697 22.1263158,5.31173747 L15.3473684,5.31173747 C15.6724812,3.0409697 17.0697744,1.32793437 18.7368421,1.32793437 Z M15.2781955,6.63967183 L22.1954887,6.63967183 C22.0640602,9.22914385 20.5630075,11.2874421 18.7368421,11.2874421 C16.9106767,11.2874421 15.4096241,9.22914385 15.2781955,6.63967183 Z" id="Shape"></path>
            </g>
        </g>
    </g>
</svg>