<?xml version="1.0" encoding="UTF-8"?>
<svg width="23px" height="24px" viewBox="0 0 23 24" version="1.1" xmlns="http://www.w3.org/2000/svg" xmlns:xlink="http://www.w3.org/1999/xlink">
    <!-- Generator: Sketch 51.2 (57519) - http://www.bohemiancoding.com/sketch -->
    <title>scale</title>
    <desc>Created with Sketch.</desc>
    <defs></defs>
    <g id="Page-1" stroke="none" stroke-width="1" fill="none" fill-rule="evenodd">
        <g id="add_entry" transform="translate(-22.000000, -485.000000)" fill="#9B9B9B" fill-rule="nonzero">
            <path d="M23.3942227,505.504517 L22.0621304,494.449341 C21.917477,493.248169 22.0256924,492.060181 22.3838467,490.918335 C22.7280849,489.82135 23.2847256,488.819946 24.0383877,487.942322 C24.1649136,487.795105 24.3868374,487.778259 24.5342373,487.904785 C24.6814541,488.031128 24.6982998,488.253235 24.5717739,488.400452 C23.1409878,490.066528 22.4975551,492.184875 22.7603115,494.365112 L24.0922207,505.420288 C24.2897915,507.060181 25.6845058,508.296875 27.3363003,508.296875 L38.9287075,508.296875 C40.5805019,508.296875 41.9750332,507.060181 42.172604,505.420288 L43.5045132,494.365112 C43.7691006,492.169495 43.0791592,489.961426 41.611935,488.306702 C40.1447109,486.652161 38.0349697,485.703125 35.8234219,485.703125 L30.4414028,485.703125 C28.6266445,485.703125 26.9292568,486.310303 25.5330776,487.45874 C25.3832973,487.582153 25.1617397,487.56073 25.0383266,487.410767 C24.9149136,487.260803 24.93652,487.039246 25.0864834,486.915833 C26.5883144,485.68042 28.4898647,485 30.4414028,485 L35.8234219,485 C38.2358364,485 40.5374722,486.035278 42.1381801,487.840332 C43.738705,489.645203 44.4910854,492.054138 44.2025112,494.449341 L42.870602,505.504517 C42.6305508,507.497253 40.9359097,509 38.9287075,509 L27.3363003,509 C25.328915,509 23.6342739,507.497253 23.3942227,505.504517 Z M40.7240566,501.767334 L41.3314175,496.72644 C41.3510097,496.563293 41.2193569,496.414062 41.054562,496.414062 L25.2102627,496.414062 C25.0443691,496.414062 24.9136318,496.561279 24.9334072,496.726074 C24.9334072,496.72644 25.953854,505.196167 25.953854,505.196167 C26.0380825,505.894897 26.6322597,506.421875 27.3361172,506.421875 L38.9287075,506.421875 C39.6325649,506.421875 40.2267422,505.894897 40.3111538,505.195984 L40.5565151,503.158752 C40.5797695,502.965942 40.7548183,502.828613 40.9476284,502.851685 C41.1404384,502.874939 41.2777675,503.049988 41.2546963,503.242798 L41.0091518,505.280212 C40.8824429,506.33197 39.9879727,507.125 38.9287075,507.125 L27.3361172,507.125 C26.276852,507.125 25.3823818,506.33197 25.2556728,505.280212 L24.2352261,496.810486 C24.1660122,496.234985 24.6305508,495.710938 25.2102627,495.710938 C25.2214321,495.710938 41.054562,495.710938 41.054562,495.710938 C41.6342739,495.710938 42.0989956,496.234253 42.0295986,496.810486 C42.0294155,496.811584 41.4222378,501.851379 41.4222378,501.851379 C41.3989834,502.044189 41.2237514,502.181702 41.0311245,502.158447 C40.8383144,502.135193 40.7009853,501.960144 40.7240566,501.767334 Z M29.0071377,500.543274 C29.0071377,500.348999 29.1644253,500.191711 29.3587002,500.191711 C29.552792,500.191711 29.7102627,500.348999 29.7102627,500.543274 L29.7102627,501.226257 C29.7102627,501.420349 29.552792,501.57782 29.3587002,501.57782 C29.1644253,501.57782 29.0071377,501.420349 29.0071377,501.226257 L29.0071377,500.543274 Z M36.554562,500.543274 C36.554562,500.348999 36.7120327,500.191711 36.9061245,500.191711 C37.1003994,500.191711 37.257687,500.348999 37.257687,500.543274 L37.257687,501.226257 C37.257687,501.420349 37.1003994,501.57782 36.9061245,501.57782 C36.7120327,501.57782 36.554562,501.420349 36.554562,501.226257 L36.554562,500.543274 Z M33.7991909,500.947388 C33.9268154,500.801086 34.1491055,500.786255 34.2952236,500.913879 C34.4413417,501.04187 34.4563564,501.263794 34.3285488,501.410095 C34.0328335,501.748291 33.5968594,501.942383 33.1323208,501.942383 C32.6679653,501.942383 32.2319912,501.748291 31.9362758,501.410095 C31.8084682,501.263794 31.8234829,501.041687 31.9696011,500.913879 C32.1159023,500.786255 32.3378261,500.801086 32.4656338,500.947388 C32.6278652,501.13269 32.8708462,501.239258 33.1323208,501.239258 C33.3939785,501.239258 33.6369594,501.132874 33.7991909,500.947388 Z M42.3868374,493.305481 C42.4005703,493.974182 41.8408169,494.534485 41.1741299,494.534485 L25.0906948,494.534485 C24.4273037,494.534485 23.8642544,493.9729 23.8781704,493.305481 C23.8935512,492.558411 24.0369228,491.824707 24.2956508,491.134949 C24.2960171,491.133667 24.2963833,491.132202 24.2969326,491.131104 C24.2971157,491.130554 24.2974819,491.130188 24.297665,491.129639 C25.2454189,488.608459 27.7459072,486.875 30.4414028,486.875 C30.4419521,486.875 35.8234219,486.875 35.8234219,486.875 C38.5835537,486.875 40.9353603,488.617798 41.9673427,491.129639 C41.9675258,491.130188 41.9677089,491.130554 41.9678921,491.131104 C41.9684414,491.132385 41.9688076,491.133667 41.9693569,491.134949 C42.2279018,491.824707 42.3712734,492.558411 42.3868374,493.305481 Z M41.5401577,493.676086 C41.6306118,493.583618 41.6866421,493.457825 41.6838955,493.319946 C41.672543,492.776489 41.5853847,492.241272 41.4288296,491.728394 L40.0143398,492.300964 C39.837643,492.372559 39.6283535,492.284119 39.5565761,492.106873 C39.4837002,491.927063 39.5706753,491.721985 39.750668,491.649292 L41.1838344,491.069214 C40.9408535,490.519531 40.6132778,490.00647 40.2091641,489.55072 C40.0130581,489.329529 39.8015713,489.125549 39.5774502,488.938599 L38.6994594,489.992371 C38.5765957,490.139771 38.3517422,490.160278 38.2043422,490.037415 C38.0551113,489.913086 38.0349697,489.691345 38.1592983,489.542114 L39.0103725,488.520752 C38.3035854,488.063171 37.5034145,487.76123 36.6649746,487.639465 L36.2324795,488.975403 C36.1773647,489.159241 35.9689907,489.259583 35.7897305,489.201721 C35.604977,489.141846 35.5037197,488.943542 35.5635952,488.758972 L35.9453701,487.579773 C35.9047207,487.578857 35.8640713,487.578125 35.8234219,487.578125 L33.4838833,487.578125 L33.4838833,488.867188 C33.4838833,489.061279 33.3265957,489.21875 33.1323208,489.21875 C32.938229,489.21875 32.7807583,489.061279 32.7807583,488.867188 L32.7807583,487.578125 L30.4414028,487.578125 C30.4007534,487.578125 30.360104,487.578857 30.3194546,487.579773 L30.7012295,488.758789 C30.761105,488.943542 30.6598477,489.141846 30.4750942,489.201538 C30.2940029,489.260315 30.091122,489.157043 30.0323452,488.975403 C30.0316128,488.972839 29.5998501,487.639282 29.5998501,487.639282 C28.7614102,487.76123 27.9614223,488.062988 27.2546352,488.520752 L28.1057094,489.542114 C28.2300381,489.691162 28.2098964,489.912903 28.0606655,490.037231 C27.9114345,490.16156 27.6852993,490.135925 27.5655483,489.992188 C27.5651821,489.991821 26.6875576,488.938599 26.6875576,488.938599 C26.4634365,489.125366 26.2517666,489.329529 26.0558437,489.55072 C25.65173,490.00647 25.3241542,490.519531 25.0811733,491.069031 L26.5143398,491.649109 C26.6943325,491.721985 26.7811245,491.927063 26.7084316,492.106873 C26.6362881,492.284668 26.4280972,492.372742 26.250668,492.300964 C26.2504848,492.300964 24.8361782,491.728394 24.8361782,491.728394 C24.6794399,492.241272 24.5922817,492.776672 24.5811123,493.319946 C24.575436,493.601196 24.8125576,493.83136 25.0908779,493.83136 C25.0947231,493.83136 31.8892177,493.83136 31.8892177,493.83136 L32.2717251,490.656128 C32.3196987,490.216125 32.6893886,489.884521 33.1325039,489.884521 C33.575436,489.884521 33.9451259,490.216125 33.9932827,490.656311 L34.3756069,493.83136 L41.1741299,493.83136 C41.3153042,493.83136 41.4462246,493.771667 41.5401577,493.676086 Z" id="scale"></path>
        </g>
    </g>
</svg>