<?xml version="1.0" encoding="UTF-8"?>
<svg width="24px" height="24px" viewBox="0 0 24 24" version="1.1" xmlns="http://www.w3.org/2000/svg" xmlns:xlink="http://www.w3.org/1999/xlink">
    <!-- Generator: Sketch 51.2 (57519) - http://www.bohemiancoding.com/sketch -->
    <title>Combined Shape</title>
    <desc>Created with Sketch.</desc>
    <defs></defs>
    <g id="Page-1" stroke="none" stroke-width="1" fill="none" fill-rule="evenodd">
        <g id="add_entry" transform="translate(-19.000000, -388.000000)" fill="#9B9B9B" fill-rule="nonzero">
            <path d="M42.4506719,408.799328 C42.8048594,409.153234 43,409.624047 43,410.125 C43,410.625953 42.8048594,411.096766 42.4505312,411.450812 C42.0964375,411.804906 41.6256719,412 41.125,412 C40.6243281,412 40.1535625,411.804906 39.7992812,411.450672 L35.2726562,406.924047 C35.272375,406.923766 35.2721406,406.923531 35.2719063,406.923297 L33.5424531,405.193844 C32.0071563,406.213047 30.2291875,406.75 28.375,406.75 C23.205625,406.75 19,402.544375 19,397.375 C19,392.205625 23.205625,388 28.375,388 C33.544375,388 37.75,392.205625 37.75,397.375 C37.75,399.229141 37.2130937,401.007109 36.1937969,402.542453 L42.4506719,408.799328 Z M33.1250133,404.000593 C33.8461533,403.47718 34.47718,402.846107 35.00064,402.124967 C36.0469533,400.68446 36.6,398.9815 36.6,397.2 C36.6,392.56824 32.83176,388.8 28.2,388.8 C23.56824,388.8 19.8,392.56824 19.8,397.2 C19.8,401.83176 23.56824,405.6 28.2,405.6 C29.9815,405.6 31.68446,405.046953 33.12492,404.000687 C33.1249667,404.00064 33.1250133,404.00064 33.1250133,404.000593 Z M33.3695187,395.400417 C33.4599067,395.627897 33.3424616,395.883128 33.1072519,395.970528 C33.0534571,395.990514 32.998111,396 32.943723,396 C32.7603005,396 32.587418,395.892349 32.5176992,395.71693 C31.8440094,394.021464 30.1315187,392.882389 28.2562748,392.882389 C28.0043199,392.882389 27.8,392.684822 27.8,392.441194 C27.8,392.197567 28.0043199,392 28.2562748,392 C29.3842318,392 30.4682496,392.330455 31.391111,392.955627 C32.2925276,393.566196 32.9766204,394.411612 33.3695187,395.400417 Z M33.8,396.8 C34.0208,396.8 34.2,396.9792 34.2,397.2 C34.2,397.4208 34.0208,397.6 33.8,397.6 C33.5792,397.6 33.4,397.4208 33.4,397.2 C33.4,396.9792 33.5792,396.8 33.8,396.8 Z M34.2,404.398009 L35.4019912,405.6 C35.8334134,405.234501 36.2344584,404.833413 36.6,404.401991 L35.3980088,403.2 C35.0393306,403.638455 34.6384974,404.039288 34.2,404.398009 Z M41.9330145,410.933012 C42.1052044,410.760912 42.2,410.53228 42.2,410.288935 C42.2,410.045589 42.1052044,409.816957 41.9331056,409.645039 L37.8880993,405.6 C37.4922446,406.061318 37.0613142,406.492206 36.6,406.88811 L40.6448696,410.933012 C40.8170596,411.105204 41.0457807,411.2 41.288942,411.2 C41.5321034,411.2 41.7608245,411.105204 41.9330145,410.933012 Z" id="Combined-Shape"></path>
        </g>
    </g>
</svg>