<?xml version="1.0" encoding="UTF-8"?>
<svg width="32px" height="32px" viewBox="0 0 32 32" version="1.1" xmlns="http://www.w3.org/2000/svg" xmlns:xlink="http://www.w3.org/1999/xlink">
    <!-- Generator: Sketch 51.2 (57519) - http://www.bohemiancoding.com/sketch -->
    <title>snack</title>
    <desc>Created with Sketch.</desc>
    <defs></defs>
    <g id="icons" stroke="none" stroke-width="1" fill="none" fill-rule="evenodd">
        <path d="M31.1502171,3.18781141 C31.0880512,3.15823671 31.0197212,3.1438756 30.9508665,3.14584288 L24.1309792,3.14584288 C23.991565,3.14505597 23.8575279,3.19981179 23.7585084,3.29797882 L22.9768444,4.07964284 L14.9241313,0.0559092963 C14.6662215,-0.0736029877 14.3521132,0.0294822327 14.2211583,0.286736253 L10.7220314,7.27974383 C9.9483021,7.50801333 9.35097177,8.12527871 9.14821127,8.90602466 C9.04971636,9.31469329 8.74564119,9.64257249 8.34556299,9.77162575 L7.78947987,9.96573023 C6.59750782,10.3644313 5.95407768,11.6535868 6.35205746,12.8458211 L6.70879002,13.8950346 L6.27336645,14.005202 C4.78112263,14.3795089 3.87486452,15.8926714 4.24917142,17.3849152 C4.29822215,17.5803312 4.36825714,17.7699109 4.4582272,17.9502445 C4.6202651,18.263238 4.67908663,18.6195115 4.62610135,18.9679815 L4.52642607,19.6657085 C4.40720919,20.4075024 4.59678895,21.1657558 5.05103279,21.7641354 C5.08250919,21.8061039 5.12447773,21.8428264 5.15595413,21.8795488 L0.151206028,26.9052812 C0.00234887099,27.0561056 -0.0411279109,27.2817521 0.0410386166,27.4771025 C0.121500172,27.6729776 0.311866836,27.8013095 0.523676799,27.8023587 L5.90089568,27.8023587 L6.10024623,28.5105778 C6.58432708,30.2133856 8.35716991,31.2013512 10.0599122,30.7172704 C10.0637811,30.7161556 10.0676501,30.7150408 10.0715191,30.713926 C10.632586,30.5566751 11.2333263,30.6303168 11.7397685,30.9185226 L12.7889819,31.5270664 C13.9521006,32.1914152 15.4053923,32.0638702 16.4349986,31.2070563 L16.5556582,31.107381 C17.3080753,30.4880172 18.3814207,30.4472291 19.1786918,31.0077058 L19.7610052,31.4273911 C20.3215475,31.8141574 20.9897653,32.0142293 21.6705737,31.9992125 C22.2227878,31.9986223 22.7652312,31.853962 23.2443938,31.5795271 L24.818214,30.6876957 C25.1383552,30.5061162 25.4993502,30.4086049 25.8674274,30.404408 L26.2556364,30.404408 C27.3857049,30.397457 28.4301313,29.8007169 29.0098217,28.8305879 L29.6498419,27.7813744 L30.9508665,27.7813744 C31.2405806,27.7813744 31.4754733,27.5464818 31.4754733,27.2567677 L31.4754733,3.6704496 C31.4744241,3.45863963 31.3461577,3.26827297 31.1502171,3.18781141 Z M24.3460679,4.19505632 L26.0143173,4.19505632 L25.0752713,5.12885628 L23.9683511,4.60424956 L24.3460679,4.19505632 Z M24.2778691,5.90002815 L23.7532623,6.42463487 L23.3493152,5.653463 C23.296002,5.55700094 23.2364592,5.46407997 23.1709489,5.37542143 L24.2778691,5.90002815 Z M14.903147,1.22578228 L21.2823647,4.404899 C20.8799258,4.40614494 20.4851592,4.51480411 20.1387221,4.71966303 L19.9078951,4.85606078 C19.5692615,5.05895243 19.1541664,5.08813368 18.7904828,4.93475179 L17.4632278,4.36293047 C16.3618815,3.8875712 15.0805296,4.3460119 14.5306762,5.41214391 L14.1162369,6.29348319 C13.9318376,6.66195384 13.5755641,6.91389622 13.1666987,6.9649798 L11.9915797,7.11186968 L14.903147,1.22578228 Z M8.12522817,10.9572369 L8.08325963,10.9572369 L8.65508096,10.7683785 C9.39379279,10.5222068 9.95433507,9.91405647 10.139718,9.15783588 C10.2675253,8.66529575 10.6837351,8.30108753 11.1889314,8.23977412 L13.2873583,7.97747076 C14.0421362,7.88487768 14.7001898,7.41994497 15.0395447,6.73939891 L15.4592301,5.90527422 C15.7503868,5.32892816 16.438343,5.07672348 17.0330503,5.32820683 L18.3603053,5.90002815 C19.0400644,6.19675883 19.8212038,6.14797041 20.4587321,5.76887647 L20.6895591,5.62723266 C21.2731185,5.28210701 22.0259291,5.47542459 22.3710548,6.05898399 C22.388957,6.08921445 22.4054821,6.12023183 22.4207613,6.15183938 L22.9768444,7.26925169 L22.0325523,8.19780559 C20.0170789,6.33184506 16.8704878,6.45302921 15.0045272,8.46850265 C14.3666055,9.15757358 13.9367558,10.0131416 13.7647504,10.9362527 C11.4582514,9.97018939 8.79318367,10.8690374 7.54291471,13.0346795 L7.36979449,12.5100728 C7.15654186,11.8730691 7.49242131,11.1825555 8.12522817,10.9572369 Z M18.3603053,8.97422353 L18.3603053,10.8575617 L17.1589559,9.65621227 L16.4140143,10.3959077 L17.6206098,11.5972571 L15.7372717,11.5972571 L15.7372717,12.4733504 C15.4390983,12.0907153 15.0854478,11.7547703 14.6880582,11.4765976 C14.8979009,9.31666057 16.8189452,7.73575822 18.9788166,7.94560091 C19.8184496,8.02717725 20.6095566,8.37676205 21.2351501,8.94274713 L19.4095187,10.7893628 L19.4095187,8.97422353 L18.3603053,8.97422353 Z M17.557657,12.6464706 L16.4612289,13.7428986 C16.3164375,13.3542962 16.1225297,12.9858255 15.8841616,12.6464706 L17.557657,12.6464706 Z M13.3608032,15.2432738 L14.5516605,14.0734008 L13.8172111,13.3232132 L12.5896314,14.5088244 L12.5896314,12.6464706 L11.5404179,12.6464706 L11.5404179,14.5298087 L10.3390685,13.3284593 L9.59412698,14.0681548 L10.8007224,15.2695042 L8.91738431,15.2695042 L8.91738431,16.3187176 L10.7482618,16.3187176 L9.59937305,17.4623603 L10.3338225,18.2073018 L11.5404179,17.0164445 L11.5404179,18.3594377 L11.8499359,18.3594377 L10.8584292,19.3509444 C9.09784903,18.9235211 7.86076081,17.3435368 7.86817088,15.5318075 C7.87446616,15.2474707 7.90961481,14.9644454 7.97309222,14.6871907 L7.97309222,14.6504682 C8.46753405,12.534467 10.5836664,11.2199337 12.6996676,11.71431 C14.1363687,12.0499927 15.2645354,13.1612409 15.6218582,14.5927615 L14.6880582,15.5265615 L14.6880582,15.2117974 L13.3608032,15.2432738 Z M13.9326246,16.2924873 L13.6388448,16.5757749 L13.345065,16.2924873 L13.9326246,16.2924873 Z M12.8886572,17.3102243 L12.5948774,17.6092501 L12.5948774,17.0269367 L12.8886572,17.3102243 Z M5.33432042,15.9934614 C5.55308142,15.5156759 5.97814402,15.1639926 6.4884552,15.0386772 L6.8242035,14.9547401 C6.80138311,15.1462872 6.78912043,15.338949 6.78748103,15.5318075 C6.7807923,17.5964629 8.05309474,19.4495705 9.98233596,20.1850691 L8.21965738,21.9477477 L7.02355406,21.7956118 C6.07722911,21.6809852 5.4030439,20.8208925 5.51773604,19.8746331 C5.51937544,19.8609278 5.52121156,19.847288 5.52317884,19.8336482 L5.62285411,19.1306752 C5.70364355,18.5705264 5.61019798,17.9991641 5.35530469,17.4939022 C5.13392065,17.0165757 5.1416586,16.4644927 5.37628896,15.993527 L5.33432042,15.993527 L5.33432042,15.9934614 Z M1.78797899,26.7531453 L6.00581702,22.5562915 C6.29539993,22.7096078 6.60970493,22.8107913 6.93437091,22.8553173 L7.32257989,22.9025319 L3.45622836,26.7531453 L1.78797899,26.7531453 Z M4.93561931,26.7531453 L8.63934275,23.0494218 L8.85443151,23.0756522 L8.88590791,22.8028567 L19.0790165,12.5887638 C19.2122666,12.5330244 19.3165977,12.4248898 19.3675502,12.289738 L27.4937083,4.19505632 L29.6865644,4.19505632 L7.1284754,26.7531453 L4.93561931,26.7531453 Z M28.1337285,28.3269654 C27.7418472,28.9759039 27.039989,29.3736214 26.2818667,29.3761789 L25.8936578,29.3761789 C25.3413125,29.3807692 24.7993937,29.5270689 24.3198376,29.8011103 L22.7460174,30.6876957 C22.0133386,31.1060039 21.104523,31.0609533 20.4167636,30.5722822 L19.8344502,30.1578429 C18.6460848,29.3083079 17.0344274,29.3664736 15.9103919,30.2994867 L15.7897323,30.399162 C15.0969236,30.9763605 14.1190567,31.064101 13.3345729,30.6194968 L12.2853595,30.0057069 C11.5330734,29.5792672 10.6413731,29.4715917 9.80921574,29.7066811 C8.6606549,30.0337078 7.4639614,29.3696869 7.13372147,28.2220441 L7.01830799,27.8023587 L28.4747228,27.8023587 L28.1337285,28.3269654 Z M30.4262598,26.7531453 L8.60786635,26.7531453 L30.4262598,4.93475179 L30.4262598,26.7531453 Z M27.8032262,12.5887638 L27.8032262,13.6379773 L28.8524397,13.6379773 L28.8524397,12.5887638 L27.8032262,12.5887638 Z M23.6063725,15.2117974 L23.6063725,16.2610109 L24.6555859,16.2610109 L24.6555859,15.2117974 L23.6063725,15.2117974 Z M26.2294061,17.834831 L26.2294061,18.8840445 L27.2786195,18.8840445 L27.2786195,17.834831 L26.2294061,17.834831 Z M18.3603053,19.4086512 L18.3603053,20.4578646 L19.4095187,20.4578646 L19.4095187,19.4086512 L18.3603053,19.4086512 Z M22.557159,23.0808982 L22.557159,24.1301117 L23.6063725,24.1301117 L23.6063725,23.0808982 L22.557159,23.0808982 Z M27.2786195,24.6547184 L27.2786195,25.7039318 L28.3278329,25.7039318 L28.3278329,24.6547184 L27.2786195,24.6547184 Z M12.5896314,24.1301117 L12.5896314,25.1793251 L13.6388448,25.1793251 L13.6388448,24.1301117 L12.5896314,24.1301117 Z M16.7864851,24.6547184 L16.7864851,25.7039318 L17.8356986,25.7039318 L17.8356986,24.6547184 L16.7864851,24.6547184 Z" id="snack" fill="#000000" fill-rule="nonzero"></path>
    </g>
</svg>