<?xml version="1.0" encoding="UTF-8"?>
<svg width="28px" height="32px" viewBox="0 0 28 32" version="1.1" xmlns="http://www.w3.org/2000/svg" xmlns:xlink="http://www.w3.org/1999/xlink">
    <!-- Generator: Sketch 52.3 (67297) - http://www.bohemiancoding.com/sketch -->
    <title>user</title>
    <desc>Created with Sketch.</desc>
    <g id="Page-1" stroke="none" stroke-width="1" fill="none" fill-rule="evenodd">
        <g id="menu" transform="translate(-21.000000, -21.000000)" fill="#C52C37" fill-rule="nonzero">
            <path d="M34.4936238,38.2424933 C34.5267569,38.2424933 34.5598901,38.2424933 34.5996499,38.2424933 C34.6129031,38.2424933 34.6261564,38.2424933 34.6394097,38.2424933 C34.6592896,38.2424933 34.6857961,38.2424933 34.705676,38.2424933 C36.6472788,38.2093601 38.2177903,37.5268171 39.3774507,36.2213709 C41.9287035,33.3454131 41.5045992,28.4151998 41.4582127,27.944709 C41.292547,24.4127148 39.622636,22.722924 38.2442968,21.9343549 C37.217169,21.3445848 36.0177489,21.0265065 34.6791695,21 L34.632783,21 C34.6261564,21 34.6129031,21 34.6062765,21 L34.5665167,21 C33.8309607,21 32.3863552,21.1192794 31.0013894,21.9078484 C29.6097969,22.6964175 27.9133794,24.3862083 27.7477137,27.944709 C27.7013273,28.4151998 27.2772229,33.3454131 29.8284757,36.2213709 C30.9815095,37.5268171 32.552021,38.2093601 34.4936238,38.2424933 Z M29.5170241,28.1103748 C29.5170241,28.0904949 29.5236507,28.070615 29.5236507,28.0573618 C29.7423295,23.3060675 33.1152846,22.7958169 34.5598901,22.7958169 L34.5863966,22.7958169 C34.5996499,22.7958169 34.6195298,22.7958169 34.6394097,22.7958169 C36.4286,22.8355767 39.4702235,23.5645061 39.6756491,28.0573618 C39.6756491,28.0772417 39.6756491,28.0971216 39.6822757,28.1103748 C39.6889023,28.1567612 40.1527665,32.6628702 38.0454979,35.035204 C37.2105424,35.9761855 36.0972684,36.4400497 34.632783,36.453303 C34.6195298,36.453303 34.6129031,36.453303 34.5996499,36.453303 C34.5863966,36.453303 34.57977,36.453303 34.5665167,36.453303 C33.108658,36.4400497 31.9887574,35.9761855 31.1604285,35.035204 C29.0597866,32.6761234 29.5103975,28.1501346 29.5170241,28.1103748 Z M48.2173761,46.4197556 C48.2240028,46.7643404 48.2306294,48.5336509 47.8992978,49.4149928 C47.8330315,49.5872852 47.7071256,49.733071 47.554713,49.8324705 C47.3559141,49.9583765 42.5913666,53 34.6195298,53 C26.647693,53 21.8831454,49.9650031 21.6843465,49.8324705 C21.5253074,49.733071 21.406028,49.5872852 21.3397617,49.4149928 C20.9885503,48.5270242 20.9951769,46.7577138 21.0018035,46.413129 C21.0018035,46.4065024 21.0018035,46.3998758 21.0018035,46.3932491 C21.0084302,46.3402361 21.0084302,46.287223 21.0084302,46.2275834 C21.04819,44.9221371 21.1343362,41.854007 24.0102939,40.8666391 C24.0301738,40.8600124 24.0500537,40.8533858 24.0765602,40.8467592 C27.078424,40.0846966 29.5501572,38.3617726 29.5766638,38.3418927 C29.9808882,38.0569476 30.5375252,38.1563471 30.8224703,38.5605715 C31.1074155,38.964796 31.008016,39.521433 30.6037915,39.8063781 C30.4911388,39.8792711 27.8537398,41.7214744 24.5536776,42.5696832 C23.0096727,43.1196935 22.8373803,44.7697246 22.7909938,46.2805964 C22.7909938,46.3402361 22.7843672,46.3932491 22.7843672,46.4462622 C22.771114,47.0426589 22.8175004,47.9637606 22.9235265,48.4938911 C24.0036673,49.1035411 28.2380843,51.2174363 34.6129031,51.2174363 C41.0142285,51.2174363 45.222139,49.1101677 46.2956532,48.5005177 C46.4016793,47.9703872 46.4414391,47.0492856 46.4348124,46.4528888 C46.4281858,46.3998758 46.4281858,46.3468627 46.4281858,46.287223 C46.3817994,44.7763512 46.209507,43.1263201 44.665502,42.5763098 C41.3654399,41.7281011 38.7280409,39.8925243 38.6153881,39.8130048 C38.2111637,39.5280596 38.1117642,38.9714227 38.3967093,38.5671982 C38.6816544,38.1629737 39.2382914,38.0635742 39.6425159,38.3485194 C39.6690224,38.3683993 42.154009,40.0913233 45.1426194,40.8533858 C45.1624993,40.8600124 45.1890059,40.8666391 45.2088858,40.8732657 C48.0848435,41.854007 48.1709897,44.9221371 48.2107495,46.23421 C48.2107495,46.2938497 48.2173761,46.3468627 48.2173761,46.3998758 C48.2173761,46.4065024 48.2173761,46.413129 48.2173761,46.4197556 Z" id="user"></path>
        </g>
    </g>
</svg>